<svg width="388" height="354" viewBox="0 0 388 354" fill="none" xmlns="http://www.w3.org/2000/svg">
<path d="M57.1678 163.259C-18.4041 206.928 -18.3962 277.593 57.1678 321.263C132.732 364.932 255.26 364.893 330.832 321.263C406.404 277.633 406.396 206.928 330.832 163.259C255.268 119.589 132.74 119.621 57.1678 163.259Z" fill="#FAFAFA"/>
<path opacity="0.99" d="M334.167 266.755L369.293 246.517C369.472 246.456 369.628 246.341 369.739 246.187C369.849 246.033 369.908 245.849 369.908 245.659C369.908 245.47 369.849 245.285 369.739 245.131C369.628 244.978 369.472 244.862 369.293 244.802L293.769 201.1C293.311 200.868 292.805 200.746 292.292 200.746C291.779 200.746 291.273 200.868 290.815 201.1L255.697 221.3C255.518 221.36 255.362 221.476 255.251 221.629C255.141 221.783 255.082 221.968 255.082 222.157C255.082 222.346 255.141 222.531 255.251 222.685C255.362 222.839 255.518 222.954 255.697 223.015L331.221 266.755C331.678 266.987 332.182 267.108 332.694 267.108C333.206 267.108 333.711 266.987 334.167 266.755Z" fill="#E0E0E0"/>
<path opacity="0.99" d="M35.7539 232.908C24.638 239.307 24.638 249.693 35.7539 256.1C46.8697 262.508 64.8377 262.508 75.9298 256.1C87.0218 249.693 87.0456 239.315 75.9298 232.908C64.8139 226.5 46.8459 226.508 35.7539 232.908Z" fill="#E0E0E0"/>
<path opacity="0.99" d="M181.34 335.594C219.494 335.594 250.425 317.735 250.425 295.704C250.425 273.674 219.494 255.814 181.34 255.814C143.185 255.814 112.255 273.674 112.255 295.704C112.255 317.735 143.185 335.594 181.34 335.594Z" fill="#E0E0E0"/>
<path d="M288.648 87.5043L311.014 74.594L369.904 108.553V111.014L347.538 123.925L288.648 89.9577V87.5043Z" fill="#EBEBEB"/>
<path d="M347.538 121.471L288.648 87.5043L311.014 74.594L369.904 108.553L347.538 121.471Z" fill="#FAFAFA"/>
<path d="M347.538 121.471V123.925L369.905 111.014V108.553L347.538 121.471Z" fill="#E6E6E6"/>
<path d="M304.281 53.3073L291.165 60.8899V85.8449L304.281 78.2703V53.3073Z" fill="#EBEBEB"/>
<path d="M291.585 61.3026L304.289 54.0138C305.066 54.8362 306.083 55.392 307.195 55.6018L294.603 62.8588C293.532 62.4765 292.517 61.9532 291.585 61.3026Z" fill="white"/>
<path d="M295.817 62.8112C295.44 63.003 295.022 63.103 294.599 63.103C294.175 63.103 293.757 63.003 293.38 62.8112L291.236 61.5885C291.091 61.5367 290.966 61.4413 290.877 61.3155C290.789 61.1897 290.741 61.0397 290.741 60.8858C290.741 60.732 290.789 60.5819 290.877 60.4561C290.966 60.3303 291.091 60.235 291.236 60.1831L303.757 53.0372L304.281 53.339L291.974 60.4849C291.887 60.5148 291.81 60.5715 291.756 60.647C291.702 60.7224 291.673 60.8129 291.673 60.9057C291.673 60.9985 291.702 61.0889 291.756 61.1644C291.81 61.2398 291.887 61.2965 291.974 61.3265L293.967 62.4539C294.194 62.5678 294.444 62.6271 294.698 62.6271C294.951 62.6271 295.202 62.5678 295.428 62.4539L307.735 55.3557L308.331 55.705L295.817 62.8112Z" fill="#FAFAFA"/>
<path d="M308.339 55.6335V80.5886L295.825 87.7743C295.448 87.966 295.03 88.066 294.606 88.066C294.183 88.066 293.765 87.966 293.388 87.7743L291.244 86.5436C291.106 86.4821 290.987 86.3849 290.899 86.2621C290.811 86.1393 290.757 85.9953 290.744 85.8449V60.8818C290.757 61.0334 290.81 61.1787 290.898 61.3029C290.986 61.4271 291.105 61.5256 291.244 61.5885L293.388 62.8112C293.765 63.003 294.183 63.103 294.606 63.103C295.03 63.103 295.448 63.003 295.825 62.8112L308.339 55.6335Z" fill="#E0E0E0"/>
<path d="M294.595 63.105C294.171 63.1143 293.752 63.0131 293.38 62.8112L291.236 61.5885C291.097 61.5257 290.978 61.4271 290.89 61.3029C290.802 61.1787 290.749 61.0334 290.736 60.8818V85.8449C290.75 85.9953 290.803 86.1393 290.891 86.2621C290.979 86.3849 291.098 86.4821 291.236 86.5436L293.38 87.7743C293.754 87.97 294.172 88.0683 294.595 88.0601V63.105Z" fill="#F0F0F0"/>
<path d="M309.784 57.0865L296.667 64.6691L300.74 90.3785L313.865 82.8039L309.784 57.0865Z" fill="#EBEBEB"/>
<path d="M297.223 65.0265L309.927 57.7377C310.919 58.4638 312.086 58.9157 313.309 59.0477L300.716 66.3048C299.508 66.0095 298.336 65.5807 297.223 65.0265Z" fill="white"/>
<path d="M301.987 66.2016C301.577 66.3981 301.131 66.51 300.677 66.5305C300.222 66.5509 299.769 66.4796 299.343 66.3207L296.849 65.3282C296.056 65.0026 295.968 64.431 296.643 64.0419L309.164 56.896L309.784 57.1501L297.477 64.2563C297.072 64.4945 297.127 64.8359 297.604 65.0503L299.922 65.9872C300.179 66.0804 300.451 66.122 300.723 66.1098C300.996 66.0975 301.263 66.0316 301.51 65.9157L313.809 58.8175L314.516 59.1033L301.987 66.2016Z" fill="#FAFAFA"/>
<path d="M314.516 59.016L318.589 84.7333L306.068 91.9189C305.657 92.1138 305.212 92.2246 304.758 92.2451C304.304 92.2655 303.85 92.1951 303.424 92.038L300.923 91.0217C300.534 90.855 300.311 90.6327 300.28 90.4024L296.198 64.6851C296.238 64.9153 296.46 65.1456 296.85 65.3044L299.351 66.3286C299.777 66.4836 300.231 66.5528 300.684 66.5324C301.138 66.512 301.583 66.4022 301.995 66.2095L314.516 59.016Z" fill="#E0E0E0"/>
<path d="M300.716 66.5271C300.252 66.5581 299.787 66.4904 299.351 66.3286L296.85 65.3282C296.46 65.1694 296.238 64.9391 296.198 64.7089L300.28 90.4262C300.28 90.6564 300.534 90.8788 300.923 91.0455L303.424 92.0618C303.859 92.2263 304.325 92.2967 304.789 92.2682L300.716 66.5271Z" fill="#F0F0F0"/>
<path opacity="0.05" d="M314.571 89.9419C311.491 91.7283 311.491 94.6185 314.571 96.397C316.303 97.2777 318.218 97.7367 320.161 97.7367C322.104 97.7367 324.019 97.2777 325.751 96.397C328.839 94.6185 328.839 91.7283 325.751 89.9419C324.018 89.0649 322.103 88.6079 320.161 88.6079C318.219 88.6079 316.304 89.0649 314.571 89.9419Z" fill="black"/>
<path d="M325.187 94.4597C327.879 91.7125 329.459 84.8603 326.838 82.6848H313.492C310.871 84.8603 312.451 91.7125 315.135 94.4517L315.207 94.5311L315.302 94.6185C315.38 94.6941 315.462 94.7657 315.548 94.8329C315.565 94.8554 315.587 94.8743 315.611 94.8884L315.81 95.0393C315.929 95.1187 316.04 95.1981 316.159 95.2616C317.4 95.892 318.773 96.2206 320.165 96.2206C321.557 96.2206 322.93 95.892 324.171 95.2616C324.29 95.1981 324.401 95.1187 324.52 95.0393L324.711 94.8964L324.79 94.8329L325.02 94.6264L325.131 94.5232L325.187 94.4597Z" fill="#F5F5F5"/>
<path d="M314.69 81.6447C311.649 83.3994 311.649 86.2498 314.69 87.9966C316.4 88.8617 318.289 89.3125 320.205 89.3125C322.121 89.3125 324.01 88.8617 325.719 87.9966C328.76 86.2339 328.76 83.3835 325.719 81.6447C324.01 80.7795 322.121 80.3287 320.205 80.3287C318.289 80.3287 316.4 80.7795 314.69 81.6447Z" fill="white"/>
<path d="M316.81 82.8912C314.96 83.9631 314.96 85.694 316.81 86.7659C317.851 87.2907 319 87.5642 320.165 87.5642C321.33 87.5642 322.479 87.2907 323.52 86.7659C325.37 85.694 325.37 83.9631 323.52 82.8912C322.48 82.3627 321.331 82.0872 320.165 82.0872C318.999 82.0872 317.85 82.3627 316.81 82.8912Z" fill="#EBEBEB"/>
<path d="M323.52 84.7253C322.479 84.2004 321.33 83.927 320.165 83.927C319 83.927 317.851 84.2004 316.81 84.7253C316.364 84.97 315.983 85.3186 315.699 85.7416C315.98 86.169 316.362 86.5207 316.81 86.7658C317.851 87.2907 319 87.5641 320.165 87.5641C321.33 87.5641 322.479 87.2907 323.52 86.7658C323.968 86.5229 324.348 86.1706 324.623 85.7416C324.345 85.3171 323.966 84.9679 323.52 84.7253Z" fill="#E0E0E0"/>
<path d="M317.215 85.7416C316.268 84.7803 315.453 83.6961 314.794 82.518C313.674 80.541 313.468 77.8891 314.047 77.5556C314.627 77.2221 316.985 79.8741 316.985 79.8741C316.767 78.7633 316.682 77.6305 316.731 76.4996C316.834 74.729 317.263 73.1251 317.771 72.8075C318.279 72.4899 319.407 74.7052 319.891 76.317C320.375 77.9288 320.685 79.2627 320.685 79.2627C320.881 78.0036 321.173 76.7614 321.558 75.5468C322.146 73.8715 322.678 73.4904 323.091 73.6571C323.504 73.8239 323.774 74.6099 323.885 76.8331C323.924 77.8928 323.89 78.9541 323.782 80.009C323.782 80.009 324.615 79.088 325.536 78.2067C326.457 77.3253 326.981 77.0951 327.275 77.2856C327.569 77.4762 327.64 78.9848 326.076 81.8193C325.297 83.2641 324.297 84.5792 323.115 85.7178C323.115 85.7178 320.931 87.147 317.215 85.7416Z" fill="#EBEBEB"/>
<path d="M340.979 72.2439L327.863 79.8186V104.782L340.979 97.2069V72.2439Z" fill="#E0E0E0"/>
<path d="M328.284 80.2394L340.987 72.9506C341.767 73.7699 342.783 74.3252 343.893 74.5385L331.301 81.7956C330.23 81.4133 329.216 80.89 328.284 80.2394Z" fill="white"/>
<path d="M332.516 81.7479C332.138 81.9397 331.72 82.0396 331.297 82.0396C330.873 82.0396 330.456 81.9397 330.078 81.7479L327.934 80.5251C327.786 80.4772 327.656 80.3833 327.564 80.257C327.472 80.1308 327.423 79.9786 327.423 79.8225C327.423 79.6663 327.472 79.5142 327.564 79.3879C327.656 79.2617 327.786 79.1678 327.934 79.1198L340.447 71.9739L340.979 72.2756L328.673 79.3818C328.585 79.4118 328.509 79.4684 328.455 79.5439C328.401 79.6194 328.372 79.7098 328.372 79.8026C328.372 79.8954 328.401 79.9859 328.455 80.0613C328.509 80.1368 328.585 80.1935 328.673 80.2234L330.658 81.3509C330.886 81.4642 331.137 81.5232 331.392 81.5232C331.647 81.5232 331.898 81.4642 332.126 81.3509L344.425 74.2526L345.029 74.602L332.516 81.7479Z" fill="#FAFAFA"/>
<path d="M345.029 74.5623V99.5253L332.516 106.711C332.137 106.899 331.72 106.997 331.297 106.997C330.874 106.997 330.457 106.899 330.078 106.711L327.934 105.48C327.796 105.419 327.677 105.322 327.589 105.199C327.501 105.076 327.448 104.932 327.434 104.782V79.8185C327.448 79.9689 327.501 80.1129 327.589 80.2357C327.677 80.3585 327.796 80.4557 327.934 80.5172L330.078 81.7479C330.456 81.9396 330.873 82.0396 331.297 82.0396C331.72 82.0396 332.138 81.9396 332.516 81.7479L345.029 74.5623Z" fill="#E0E0E0"/>
<path d="M331.293 82.0417C330.869 82.051 330.451 81.9497 330.078 81.7479L327.934 80.5172C327.796 80.4557 327.677 80.3586 327.589 80.2357C327.501 80.1129 327.448 79.9689 327.434 79.8185V104.782C327.448 104.932 327.501 105.076 327.589 105.199C327.677 105.322 327.796 105.419 327.934 105.48L330.078 106.711C330.453 106.907 330.87 107.005 331.293 106.997V82.0417Z" fill="#F0F0F0"/>
<path d="M346.347 75.3246L333.23 82.8993V107.862L346.347 100.288V75.3246Z" fill="#EBEBEB"/>
<path d="M333.651 83.32L346.355 76.0311C347.133 76.8522 348.15 77.4078 349.261 77.6191L336.668 84.8762C335.598 84.4939 334.583 83.9705 333.651 83.32Z" fill="white"/>
<path d="M337.883 84.8286C337.504 85.0205 337.085 85.1204 336.66 85.1204C336.235 85.1204 335.816 85.0205 335.437 84.8286L333.302 83.59C333.153 83.542 333.023 83.4481 332.932 83.3219C332.84 83.1956 332.79 83.0435 332.79 82.8873C332.79 82.7311 332.84 82.579 332.932 82.4527C333.023 82.3265 333.153 82.2326 333.302 82.1846L345.815 75.0387L346.347 75.3404L334.04 82.4466C333.952 82.4766 333.876 82.5333 333.822 82.6087C333.768 82.6842 333.739 82.7747 333.739 82.8674C333.739 82.9602 333.768 83.0507 333.822 83.1261C333.876 83.2016 333.952 83.2583 334.04 83.2882L336.025 84.4157C336.253 84.529 336.505 84.588 336.759 84.588C337.014 84.588 337.266 84.529 337.494 84.4157L349.793 77.3175L350.396 77.6668L337.883 84.8286Z" fill="#FAFAFA"/>
<path d="M350.42 77.6429V102.646L337.883 109.792C337.503 109.98 337.084 110.078 336.66 110.078C336.236 110.078 335.818 109.98 335.437 109.792L333.302 108.561C333.163 108.5 333.042 108.403 332.953 108.28C332.864 108.157 332.809 108.013 332.793 107.862V82.8992C332.809 83.0502 332.864 83.1944 332.953 83.3172C333.042 83.4399 333.163 83.5368 333.302 83.5979L335.437 84.8286C335.816 85.0204 336.235 85.1204 336.66 85.1204C337.085 85.1204 337.504 85.0204 337.883 84.8286L350.42 77.6429Z" fill="#E0E0E0"/>
<path d="M336.66 85.1223C336.234 85.1316 335.813 85.0304 335.437 84.8286L333.302 83.59C333.163 83.5289 333.042 83.432 332.953 83.3093C332.864 83.1865 332.809 83.0423 332.793 82.8912V107.854C332.809 108.005 332.864 108.15 332.953 108.272C333.042 108.395 333.163 108.492 333.302 108.553L335.437 109.784C335.815 109.979 336.235 110.078 336.66 110.07V85.1223Z" fill="#F0F0F0"/>
<path d="M351.643 80.6205L338.526 88.1952L342.599 113.912L355.724 106.338L351.643 80.6205Z" fill="#EBEBEB"/>
<path d="M339.042 88.5524L351.746 81.2635C352.739 81.9897 353.905 82.4416 355.128 82.5736L342.536 89.8307C341.327 89.5353 340.156 89.1066 339.042 88.5524Z" fill="white"/>
<path d="M343.854 89.7354C343.443 89.9302 342.998 90.0411 342.544 90.0616C342.09 90.082 341.636 90.0116 341.21 89.8545L338.709 88.8303C337.915 88.5127 337.827 87.941 338.502 87.5519L351.023 80.3663L351.643 80.6204L339.336 87.7663C338.931 87.9966 338.987 88.338 339.463 88.5603L341.781 89.4972C342.038 89.5904 342.31 89.6321 342.582 89.6198C342.855 89.6075 343.122 89.5416 343.369 89.4258L355.668 82.3275L356.375 82.6133L343.854 89.7354Z" fill="#FAFAFA"/>
<path d="M356.375 82.5498L360.448 108.267L347.927 115.413C347.516 115.607 347.07 115.716 346.616 115.735C346.162 115.754 345.709 115.683 345.283 115.524L342.782 114.556C342.393 114.397 342.17 114.174 342.139 113.936L338.058 88.2268C338.097 88.4571 338.32 88.6794 338.709 88.8382L341.21 89.8624C341.636 90.0196 342.09 90.09 342.544 90.0695C342.998 90.0491 343.443 89.9382 343.854 89.7433L356.375 82.5498Z" fill="#E0E0E0"/>
<path d="M342.575 90.0609C342.111 90.0894 341.645 90.019 341.21 89.8545L338.709 88.8302C338.32 88.6714 338.097 88.4491 338.058 88.2189L342.139 113.928C342.139 114.166 342.393 114.389 342.782 114.548L345.283 115.564C345.717 115.732 346.184 115.803 346.649 115.77L342.575 90.0609Z" fill="#F0F0F0"/>
<path d="M288.648 39.063L311.014 26.1527L369.904 60.1116V62.5651L347.538 75.4833L288.648 41.5164V39.063Z" fill="#EBEBEB"/>
<path d="M347.538 73.0219L288.648 39.063L311.014 26.1527L369.904 60.1116L347.538 73.0219Z" fill="#FAFAFA"/>
<path d="M347.538 73.022V75.4833L369.905 62.5651V60.1117L347.538 73.022Z" fill="#E6E6E6"/>
<path d="M307.576 2.49182L293.07 10.8684V38.4596L307.576 30.083V2.49182Z" fill="#EBEBEB"/>
<path d="M293.539 11.3368L307.545 3.2699C308.391 4.17654 309.503 4.79099 310.72 5.02461L296.865 13.0519C295.686 12.6285 294.568 12.0519 293.539 11.3368Z" fill="white"/>
<path d="M298.215 13.0043C297.797 13.212 297.336 13.3201 296.869 13.3201C296.402 13.3201 295.942 13.212 295.524 13.0043L293.142 11.6465C292.931 11.6465 292.729 11.5629 292.58 11.414C292.431 11.2651 292.348 11.0631 292.348 10.8525C292.348 10.642 292.431 10.44 292.58 10.2911C292.729 10.1422 292.931 10.0585 293.142 10.0585L306.973 2.11865L307.56 2.45213L293.959 10.3126C293.507 10.5667 293.507 10.9796 293.959 11.2416L296.151 12.4802C296.397 12.6038 296.669 12.6682 296.945 12.6682C297.22 12.6682 297.492 12.6038 297.739 12.4802L311.34 4.64354L311.999 5.02465L298.215 13.0043Z" fill="#FAFAFA"/>
<path d="M312.046 5.06433V32.6475L298.215 40.5874C297.798 40.7988 297.337 40.9089 296.869 40.9089C296.402 40.9089 295.941 40.7988 295.524 40.5874L293.142 39.2297C292.985 39.1606 292.851 39.0501 292.753 38.9102C292.655 38.7702 292.597 38.6062 292.586 38.4357V10.8684C292.597 11.0388 292.655 11.2029 292.753 11.3428C292.851 11.4828 292.985 11.5933 293.142 11.6624L295.524 13.0201C295.942 13.2279 296.402 13.336 296.869 13.336C297.336 13.336 297.797 13.2279 298.215 13.0201L312.046 5.06433Z" fill="#E0E0E0"/>
<path d="M296.865 13.3218C296.398 13.3328 295.936 13.2235 295.524 13.0043L293.142 11.6465C292.985 11.5774 292.851 11.4669 292.753 11.327C292.655 11.187 292.597 11.023 292.586 10.8525V38.4596C292.597 38.63 292.655 38.7941 292.753 38.934C292.851 39.0739 292.985 39.1845 293.142 39.2536L295.524 40.6113C295.936 40.8305 296.398 40.9399 296.865 40.9289V13.3218Z" fill="#F0F0F0"/>
<path d="M313.206 7.28748L298.707 15.6641L303.209 44.0889L317.716 35.7123L313.206 7.28748Z" fill="#EBEBEB"/>
<path d="M299.279 16.1008L313.325 8.00208C314.419 8.80516 315.707 9.30379 317.057 9.44714L303.138 17.4744C301.805 17.1594 300.511 16.6987 299.279 16.1008Z" fill="white"/>
<path d="M304.591 17.3633C304.137 17.5788 303.645 17.7011 303.143 17.7229C302.641 17.7447 302.14 17.6656 301.669 17.4903L298.906 16.3628C298.04 16.0135 297.937 15.3783 298.684 14.9495L312.523 7.00964L313.206 7.28754L299.605 15.1401C299.16 15.3942 299.216 15.7753 299.74 15.9897L302.304 17.0219C302.587 17.1276 302.888 17.1751 303.19 17.1614C303.491 17.1478 303.787 17.0733 304.059 16.9425L317.66 9.10578L318.454 9.42337L304.591 17.3633Z" fill="#FAFAFA"/>
<path d="M318.43 9.42334L322.932 37.8402L309.101 45.7801C308.645 45.9942 308.152 46.1156 307.649 46.1374C307.146 46.1592 306.643 46.0809 306.171 45.9072L303.416 44.7797C302.979 44.605 302.733 44.3589 302.693 44.0969L298.191 15.672C298.191 15.9341 298.477 16.1802 298.906 16.3549L301.669 17.4903C302.141 17.6626 302.642 17.7394 303.144 17.7162C303.645 17.6931 304.137 17.5704 304.591 17.3553L318.43 9.42334Z" fill="#E0E0E0"/>
<path d="M303.178 17.6887C302.665 17.7195 302.151 17.6438 301.669 17.4664L298.906 16.331C298.477 16.1563 298.231 15.9102 298.191 15.6482L302.693 44.073C302.733 44.335 302.979 44.5812 303.416 44.7559L306.171 45.8833C306.653 46.063 307.166 46.1413 307.68 46.1136L303.178 17.6887Z" fill="#F0F0F0"/>
<path d="M337.303 58.9126L336.279 59.4129L317.255 48.424L318.279 47.9318L337.303 58.9126Z" fill="#FAFAFA"/>
<path d="M318.279 47.9319L336.374 58.3808L339.01 31.3057L320.907 20.8647L318.279 47.9319Z" fill="white"/>
<path d="M315.318 49.3293L337.843 62.3348L340.948 30.3926L318.422 17.395L315.318 49.3293ZM319.986 20.3169L339.042 31.3057L336.311 59.413L317.255 48.4241L319.986 20.3169Z" fill="#F0F0F0"/>
<path d="M317.255 48.4241L318.279 47.9319L320.907 20.8647L319.986 20.3169L317.255 48.4241Z" fill="#E0E0E0"/>
<path d="M318.422 17.395L319.462 16.9186L341.988 29.9241L340.948 30.4005L318.422 17.395Z" fill="#FAFAFA"/>
<path d="M341.988 29.9242L340.948 30.4006L337.843 62.3349L338.883 61.8505L341.988 29.9242Z" fill="#E0E0E0"/>
<path d="M319.073 47.4158L335.763 57.0469L336.208 52.4894L333.103 39.0869L330.141 43.6603L330.753 47.5111L325.822 33.2987L319.518 42.8583L319.073 47.4158Z" fill="#F0F0F0"/>
<path d="M333.357 33.4495C333.703 33.6695 333.987 33.9751 334.18 34.3368C334.373 34.6984 334.47 35.1039 334.461 35.5139C334.389 36.2523 333.778 36.5381 333.095 36.1491C332.749 35.9291 332.466 35.6235 332.272 35.2618C332.079 34.9002 331.982 34.4947 331.992 34.0847C332.063 33.3383 332.674 33.0525 333.357 33.4495Z" fill="#F0F0F0"/>
<path opacity="0.05" d="M346.68 57.0389C343.592 58.8175 343.592 61.7076 346.68 63.4941C348.413 64.3711 350.328 64.828 352.27 64.828C354.212 64.828 356.127 64.3711 357.86 63.4941C360.948 61.7076 360.94 58.8175 357.86 57.0389C356.128 56.1583 354.213 55.6992 352.27 55.6992C350.327 55.6992 348.412 56.1583 346.68 57.0389Z" fill="black"/>
<path d="M357.296 61.5329C359.98 58.7857 361.56 51.9415 358.94 49.766H345.6C342.972 51.9415 344.552 58.7857 347.236 61.5329L347.315 61.6044L347.403 61.6917L347.649 61.914L347.712 61.9617C347.778 62.0164 347.847 62.0668 347.919 62.1125C348.027 62.1949 348.141 62.2692 348.26 62.3349C349.501 62.9653 350.874 63.2939 352.266 63.2939C353.658 63.2939 355.031 62.9653 356.272 62.3349C356.393 62.2683 356.509 62.194 356.621 62.1125L356.812 61.9696L356.891 61.9061L357.121 61.6997L357.232 61.5964L357.296 61.5329Z" fill="#F5F5F5"/>
<path d="M346.752 48.7179C343.711 50.4805 343.711 53.323 346.752 55.0698C348.461 55.9349 350.35 56.3857 352.266 56.3857C354.182 56.3857 356.071 55.9349 357.78 55.0698C360.821 53.3151 360.821 50.4647 357.78 48.7179C356.071 47.8528 354.182 47.402 352.266 47.402C350.35 47.402 348.461 47.8528 346.752 48.7179Z" fill="white"/>
<path d="M348.911 49.9645C347.061 51.0363 347.061 52.7672 348.911 53.8391C349.951 54.3677 351.1 54.6432 352.266 54.6432C353.432 54.6432 354.581 54.3677 355.621 53.8391C357.471 52.7672 357.471 51.0363 355.621 49.9645C354.581 49.4359 353.432 49.1604 352.266 49.1604C351.1 49.1604 349.951 49.4359 348.911 49.9645Z" fill="#EBEBEB"/>
<path d="M355.621 51.8304C354.581 51.3019 353.432 51.0264 352.266 51.0264C351.1 51.0264 349.951 51.3019 348.911 51.8304C348.464 52.0706 348.084 52.4202 347.808 52.8467C348.086 53.2715 348.465 53.6207 348.911 53.863C349.951 54.3916 351.1 54.6671 352.266 54.6671C353.432 54.6671 354.581 54.3916 355.621 53.863C356.069 53.6206 356.451 53.2716 356.732 52.8467C356.453 52.4199 356.071 52.0703 355.621 51.8304Z" fill="#E0E0E0"/>
<path d="M349.324 52.8229C348.375 51.861 347.558 50.7769 346.895 49.5993C345.775 47.6143 345.569 44.9624 346.148 44.6368C346.728 44.3113 349.086 46.9553 349.086 46.9553C348.866 45.8421 348.781 44.7065 348.832 43.5729C348.927 41.8102 349.356 40.2064 349.864 39.8808C350.372 39.5553 351.5 41.7864 351.984 43.3982C352.469 45.01 352.778 46.336 352.778 46.336C352.97 45.0768 353.259 43.8344 353.644 42.6201C354.231 40.9448 354.763 40.5716 355.176 40.7383C355.589 40.9051 355.867 41.6832 355.97 43.9143C356.014 44.9741 355.98 46.0356 355.867 47.0903C355.867 47.0903 356.7 46.1772 357.622 45.2879C358.543 44.3986 359.075 44.1843 359.36 44.3669C359.646 44.5495 359.734 46.066 358.161 48.9085C357.382 50.3537 356.383 51.6689 355.2 52.807C355.2 52.807 353.032 54.2124 349.324 52.8229Z" fill="#EBEBEB"/>
<path d="M26.226 60.6754C26.226 39.4362 40.2161 14.1476 57.4378 4.19098C66.5686 -1.08112 74.7864 -1.00172 80.4635 3.39699C87.6094 6.34269 92.1192 14.5128 92.1192 26.6132V126.577L29.6322 162.648L26.226 160.607V60.6754Z" fill="#E6E6E6"/>
<path d="M29.6957 162.647V62.6762C29.6957 41.4449 43.6858 16.1484 60.9392 6.19178C78.1926 -3.76485 92.1827 5.39779 92.1827 26.6053V126.576L29.6957 162.647Z" fill="#F5F5F5"/>
<path d="M33.1099 62.6763V156.724L88.7607 124.592V26.6133C88.7607 15.9976 85.0289 8.66909 78.7485 6.36652C77.2895 5.82945 75.7455 5.56046 74.191 5.57253C70.6339 5.57253 66.7592 6.77146 62.6463 9.14549C46.3616 18.5543 33.1099 42.5645 33.1099 62.6763Z" fill="#E0E0E0"/>
<path d="M88.7607 124.592L85.2353 122.559L33.1179 152.659V156.724L88.7607 124.592Z" fill="#EBEBEB"/>
<path d="M33.1099 62.6763V152.667L85.2274 122.559V24.5648C85.2274 16.1008 82.8454 9.74892 78.7485 6.36652C77.2895 5.82945 75.7455 5.56046 74.191 5.57253C70.6339 5.57253 66.7592 6.77146 62.6463 9.14549C46.3616 18.5543 33.1099 42.5645 33.1099 62.6763Z" fill="white"/>
<path d="M59.2322 141.646L62.6463 139.669V7.91479H59.2322V141.646Z" fill="#F5F5F5"/>
<path d="M55.8498 14.0921V139.677L59.2719 141.647V11.3369C58.065 12.2024 56.9296 13.1075 55.8498 14.0921Z" fill="#E0E0E0"/>
<path d="M88.7606 92.7526L62.6463 107.83V111.84L88.7606 96.7622V92.7526Z" fill="#F5F5F5"/>
<path d="M85.2353 90.72L88.7606 92.7526L62.6463 107.83V103.821L85.2353 90.72Z" fill="#EBEBEB"/>
<path d="M59.2322 109.8L33.1179 124.877V128.887L59.2322 113.809V109.8Z" fill="#F5F5F5"/>
<path d="M55.6989 107.767L59.2322 109.8L33.1179 124.877V120.868L55.6989 107.767Z" fill="#EBEBEB"/>
<path d="M88.7606 34.2197L62.6463 49.2976V53.3072L88.7606 38.2294V34.2197Z" fill="#F5F5F5"/>
<path d="M85.2353 32.187L88.7606 34.2196L62.6463 49.2975V45.2878L85.2353 32.187Z" fill="#EBEBEB"/>
<path d="M59.2322 51.2666L33.1179 66.3445V70.3541L59.2322 55.2762V51.2666Z" fill="#F5F5F5"/>
<path d="M55.6989 49.234L59.2322 51.2666L33.1179 66.3445V62.3348L55.6989 49.234Z" fill="#EBEBEB"/>
<path d="M325.568 246.739L328.585 261.698L331.515 263.389L334.421 261.714L337.462 246.739L331.515 243.301L325.568 246.739Z" fill="#E0E0E0"/>
<path opacity="0.05" d="M325.568 246.739L328.585 261.698L331.515 263.389L334.421 261.714L337.462 246.739L331.515 243.301L325.568 246.739Z" fill="black"/>
<path d="M331.515 263.389V250.169L325.568 246.739L328.585 261.698L331.515 263.389Z" fill="#EBEBEB"/>
<path opacity="0.05" d="M325.568 246.739L327.513 256.402L331.515 258.712L335.493 256.41L337.462 246.739L331.515 243.301L325.568 246.739Z" fill="black"/>
<path d="M351.722 231.637L354.739 246.596L357.669 248.295L360.575 246.612L363.616 231.637L357.669 228.199L351.722 231.637Z" fill="#E0E0E0"/>
<path opacity="0.05" d="M351.722 231.637L354.739 246.596L357.669 248.295L360.575 246.612L363.616 231.637L357.669 228.199L351.722 231.637Z" fill="black"/>
<path d="M357.669 248.295V235.067L351.722 231.637L354.739 246.596L357.669 248.295Z" fill="#EBEBEB"/>
<path opacity="0.05" d="M351.722 231.637L353.667 241.3L357.669 243.611L361.655 241.308L363.616 231.637L357.669 228.199L351.722 231.637Z" fill="black"/>
<path d="M261.565 209.802L264.582 224.769L267.512 226.46L270.418 224.785L273.459 209.802L267.512 206.365L261.565 209.802Z" fill="#EBEBEB"/>
<path opacity="0.05" d="M261.565 209.802L264.582 224.769L267.512 226.46L270.418 224.785L273.459 209.802L267.512 206.365L261.565 209.802Z" fill="black"/>
<path d="M267.512 226.46V213.24L261.565 209.802L264.582 224.769L267.512 226.46Z" fill="#EBEBEB"/>
<path opacity="0.05" d="M261.565 209.802L263.518 219.465L267.512 221.776L271.497 219.473L273.459 209.802L267.512 206.365L261.565 209.802Z" fill="black"/>
<path d="M331.515 256.299L363.926 237.576V167.419L331.515 186.134V256.299Z" fill="#E0E0E0"/>
<path d="M331.515 186.134L259.881 144.799V214.956L331.515 256.299V186.134Z" fill="#EBEBEB"/>
<path d="M259.881 144.799L331.515 186.134L363.926 167.419L292.3 126.084L259.881 144.799Z" fill="#F5F5F5"/>
<path d="M326.886 220.895L264.51 184.895V210.644L263.661 211.136L326.029 247.128L326.886 246.636V220.895Z" fill="#E0E0E0"/>
<path d="M326.029 221.387L263.661 185.387V211.136L326.029 247.128V221.387Z" fill="#F5F5F5"/>
<path d="M297.469 211.517L291.165 207.881C290.371 207.405 289.688 207.619 289.688 208.357C289.747 208.812 289.911 209.247 290.167 209.628C290.424 210.008 290.765 210.323 291.165 210.549L297.469 214.185C298.263 214.662 298.946 214.447 298.946 213.709C298.887 213.254 298.722 212.819 298.466 212.439C298.21 212.058 297.868 211.743 297.469 211.517Z" fill="#E0E0E0"/>
<path d="M326.886 189.802L264.51 153.81V179.559L263.661 180.052L326.037 216.043L326.886 215.551V189.802Z" fill="#E0E0E0"/>
<path d="M326.037 190.294L263.661 154.303V180.052L326.037 216.043V190.294Z" fill="#F5F5F5"/>
<path d="M297.469 180.457L291.165 176.82C290.371 176.352 289.688 176.566 289.688 177.304C289.748 177.759 289.913 178.193 290.169 178.573C290.425 178.954 290.766 179.269 291.165 179.496L297.469 183.132C298.263 183.601 298.946 183.386 298.946 182.648C298.885 182.194 298.721 181.759 298.464 181.379C298.208 180.999 297.867 180.683 297.469 180.457Z" fill="#E0E0E0"/>
<path d="M323.011 158.225C319.423 160.297 319.423 163.656 323.011 165.728C326.6 167.8 332.412 167.8 336.001 165.728C339.59 163.656 339.59 160.297 336.001 158.225C332.412 156.153 326.6 156.129 323.011 158.225Z" fill="#E0E0E0"/>
<path d="M335.215 162.417C338.343 159.241 340.178 151.301 337.129 148.737H321.622C318.581 151.27 320.415 159.225 323.536 162.409C323.561 162.442 323.59 162.472 323.623 162.497L323.726 162.608C323.813 162.687 323.909 162.775 324.012 162.854L324.083 162.917C324.163 162.973 324.234 163.037 324.322 163.092L324.727 163.354C326.168 164.086 327.762 164.468 329.379 164.468C330.996 164.468 332.59 164.086 334.032 163.354L334.437 163.092L334.659 162.925L334.747 162.854C334.842 162.775 334.937 162.695 335.025 162.608L335.144 162.489L335.215 162.417Z" fill="#EBEBEB"/>
<path d="M322.972 147.72C319.439 149.761 319.439 153.08 322.972 155.12C326.505 157.161 332.246 157.161 335.779 155.12C339.312 153.08 339.32 149.761 335.779 147.72C332.238 145.68 326.513 145.68 322.972 147.72Z" fill="#FAFAFA"/>
<path d="M325.481 149.174C323.329 150.412 323.329 152.429 325.481 153.668C326.688 154.282 328.024 154.602 329.379 154.602C330.734 154.602 332.07 154.282 333.278 153.668C335.429 152.429 335.429 150.412 333.278 149.174C332.07 148.559 330.734 148.239 329.379 148.239C328.024 148.239 326.688 148.559 325.481 149.174Z" fill="#F5F5F5"/>
<path d="M333.278 151.309C332.07 150.695 330.734 150.375 329.379 150.375C328.024 150.375 326.688 150.695 325.481 151.309C324.96 151.587 324.518 151.991 324.195 152.484C324.516 152.982 324.958 153.389 325.481 153.667C326.688 154.282 328.024 154.602 329.379 154.602C330.734 154.602 332.07 154.282 333.278 153.667C333.799 153.387 334.241 152.98 334.564 152.484C334.238 151.993 333.796 151.59 333.278 151.309Z" fill="#EBEBEB"/>
<path d="M325.957 152.484C324.855 151.366 323.908 150.106 323.139 148.737C321.836 146.442 321.598 143.354 322.265 142.972C322.932 142.591 325.679 145.672 325.679 145.672C325.428 144.378 325.332 143.059 325.393 141.742C325.505 139.693 326.005 137.827 326.592 137.454C327.18 137.081 328.49 139.661 329.054 141.535C329.617 143.409 329.959 144.949 329.959 144.949C330.183 143.488 330.52 142.047 330.967 140.638C331.65 138.693 332.269 138.256 332.754 138.447C333.238 138.637 333.548 139.542 333.691 142.139C333.739 143.376 333.7 144.615 333.572 145.847C333.572 145.847 334.54 144.783 335.612 143.751C336.684 142.718 337.295 142.464 337.629 142.679C337.962 142.893 338.058 144.656 336.231 147.959C335.328 149.637 334.168 151.164 332.793 152.484C332.793 152.484 330.269 154.112 325.957 152.484Z" fill="#E0E0E0"/>
<path d="M308.37 156.145L307.227 156.708L285.797 144.537L286.948 143.981L308.37 156.145Z" fill="#FAFAFA"/>
<path d="M286.948 143.981L307.33 155.549L310.069 125.163L289.688 113.595L286.948 143.981Z" fill="white"/>
<path d="M283.63 145.569L308.998 159.98L312.237 124.139L286.829 109.728L283.63 145.569ZM288.64 113.015L310.077 125.187L307.235 156.732L285.797 144.568L288.64 113.015Z" fill="#F0F0F0"/>
<path d="M285.797 144.537L286.948 143.981L289.688 113.595L288.64 112.991L285.797 144.537Z" fill="#E0E0E0"/>
<path d="M286.861 109.728L288.028 109.18L313.396 123.591L312.229 124.139L286.861 109.728Z" fill="#FAFAFA"/>
<path d="M313.396 123.591L312.229 124.139L308.998 159.98L310.165 159.432L313.396 123.591Z" fill="#E0E0E0"/>
<path d="M287.838 143.393L306.624 154.064L307.092 148.951L303.503 133.945L300.216 139.098L300.939 143.409L295.293 127.505L288.298 138.272L287.838 143.393Z" fill="#F0F0F0"/>
<path d="M303.741 127.617C304.134 127.856 304.457 128.195 304.677 128.6C304.898 129.004 305.007 129.459 304.996 129.919C304.924 130.753 304.202 131.078 303.471 130.642C303.078 130.402 302.756 130.063 302.535 129.659C302.315 129.254 302.205 128.799 302.217 128.339C302.296 127.505 302.979 127.18 303.741 127.617Z" fill="#F0F0F0"/>
<path d="M40.502 246.398C32.3001 237.934 27.4806 216.647 35.484 209.938H76.1998C84.2032 216.647 79.3757 237.918 71.1897 246.39L70.9594 246.628L70.6815 246.906C70.4457 247.142 70.1965 247.365 69.9352 247.573L69.7446 247.732C69.5382 247.89 69.3397 248.049 69.1253 248.2C68.7848 248.449 68.4295 248.677 68.0614 248.883C61.3125 252.853 50.3713 252.853 43.6224 248.883C43.2505 248.676 42.8924 248.445 42.5505 248.192C42.344 248.049 42.1614 247.906 41.9788 247.755L41.7327 247.565C41.4786 247.353 41.2404 247.139 41.0181 246.922L40.6925 246.596C40.625 246.534 40.5614 246.468 40.502 246.398Z" fill="#E0E0E0"/>
<path d="M72.6665 207.23C81.9562 212.653 81.9562 221.45 72.6665 226.873C63.3769 232.296 48.3069 232.296 39.0172 226.873C29.7276 221.45 29.7276 212.653 39.0172 207.23C48.3069 201.807 63.3769 201.807 72.6665 207.23Z" fill="#F0F0F0"/>
<path d="M68.1964 209.834C75.0168 213.804 75.0168 220.275 68.1964 224.261C61.376 228.247 50.3078 228.231 43.4874 224.261C36.667 220.291 36.667 213.804 43.4874 209.834C50.3078 205.864 61.4078 205.864 68.1964 209.834Z" fill="#E0E0E0"/>
<path d="M43.4874 216.686C50.3077 212.716 61.376 212.716 68.1963 216.686C69.853 217.589 71.2585 218.891 72.2854 220.474C71.2569 222.057 69.852 223.361 68.1963 224.269C61.376 228.239 50.3077 228.239 43.4874 224.269C41.8317 223.361 40.4268 222.057 39.3983 220.474C40.4252 218.891 41.8307 217.589 43.4874 216.686Z" fill="#FAFAFA"/>
<path d="M46.6077 155.247C48.553 158.773 45.8138 164.775 40.1685 165.839C41.9391 163.354 43.4953 159.487 42.0741 158.932C40.6528 158.376 42.2964 162.02 39.1284 165.371C39.1284 165.371 37.4292 166.165 35.0869 164.251C38.6043 161.806 40.1923 156.7 38.9457 157.415C38.4455 157.701 37.5721 160.234 35.4601 161.814C33.3481 163.394 31.244 163.489 28.1316 160.829C30.0213 160.528 32.7367 159.805 34.3088 157.891C35.4363 156.526 35.7857 155.637 33.1973 157.217C30.6088 158.797 29.7752 159.464 27.3376 159.352C24.9001 159.241 22.7801 156.677 22.7801 156.677C22.7801 156.677 26.7501 157.09 27.7028 155.811C28.6556 154.533 24.3998 156.407 21.6288 155.255C19.9392 154.546 18.382 153.556 17.0237 152.326C17.0237 152.326 18.3655 149.15 19.3104 148.356C21.3827 149.944 23.9711 152.151 24.376 151.698C24.781 151.246 23.9473 149.563 20.8587 148.014C21.0236 147.473 21.3548 146.998 21.8052 146.656C22.2556 146.314 22.8023 146.122 23.3677 146.109C23.3677 146.109 24.9556 146.355 27.282 150.515C27.7664 151.389 28.87 152.175 26.9565 148.816C26.2362 147.378 25.2089 146.115 23.9473 145.116C24.7532 144.601 25.71 144.373 26.6617 144.471C27.6134 144.569 28.5038 144.987 29.1876 145.656C33.7133 149.539 33.8721 151.444 34.5391 151.166C34.7852 151.063 34.4359 150.071 32.7367 147.657C31.8693 146.348 30.7969 145.187 29.5608 144.219C29.5608 144.219 31.5299 141.972 34.7058 144.108C37.8818 146.244 39.7397 150.658 39.9541 150.738C40.5337 150.944 39.6841 147.427 38.4376 145.521C37.2784 143.751 36.6273 142.933 36.6273 142.933C37.592 142.63 38.6286 142.645 39.5838 142.977C40.539 143.308 41.3621 143.939 41.9311 144.775C44.2099 147.76 43.8288 152.127 44.5751 151.921C45.3215 151.714 44.0114 144.775 44.0114 144.775C44.0114 144.775 50.6412 150.952 46.6077 155.247Z" fill="#E6E6E6"/>
<path d="M36.667 166.268C38.382 164.053 40.637 161.568 43.6065 161.258C46.576 160.948 49.3073 162.52 51.197 164.601C53.0757 166.802 54.5513 169.318 55.556 172.032C56.6854 174.867 57.5855 177.788 58.2477 180.766C61.1219 193.16 61.6062 205.928 61.1457 218.568C61.1457 219.561 61.0663 220.545 61.0187 221.538H62.3605C62.3605 221.03 62.4161 220.521 62.4399 220.013C62.7511 213.4 62.7299 206.775 62.3764 200.163C62.0342 193.563 61.123 187.004 59.653 180.56C58.9546 177.398 57.9959 174.298 56.7867 171.294C55.7355 168.521 54.1885 165.962 52.2213 163.743C50.0299 161.441 46.9412 159.837 43.6938 160.321C40.3194 160.813 38.3344 163.449 36.5479 166.062C36.4606 166.117 36.5638 166.395 36.667 166.268Z" fill="#E0E0E0"/>
<path d="M54.9208 218.267C55.1432 220.299 55.3311 222.334 55.4846 224.372H56.9693C56.9138 223.578 56.8582 222.784 56.7947 221.99C56.2389 215.099 55.2861 208.246 54.2698 201.418C53.2535 194.59 52.1736 187.793 51.3558 180.957C50.9588 177.638 50.5618 174.311 50.403 170.976C50.163 167.819 50.2776 164.644 50.7445 161.512C51.2605 158.392 52.3324 155.009 54.5477 152.667C56.6438 150.46 60.6773 149.491 62.7655 152.262C62.7655 152.262 62.8052 152.262 62.7655 152.215C61.4633 149.833 58.1047 149.253 55.7863 150.365C53.0788 151.659 51.4352 154.43 50.403 157.129C48.0211 163.378 48.6166 170.278 49.2676 176.781C50.6889 190.683 53.4202 204.388 54.9208 218.267Z" fill="#E0E0E0"/>
<path d="M46.9174 197.13C47.2986 200.64 47.6638 204.157 47.9179 207.683C48.2434 212.296 48.434 216.917 48.561 221.538H50.149C50.149 220.847 50.149 220.156 50.0855 219.465C49.925 212.435 49.3097 205.423 48.2434 198.472C47.9258 196.503 47.4494 194.558 47.0842 192.613C46.6894 190.511 46.1698 188.435 45.528 186.396C45.4644 186.205 45.2739 186.3 45.2977 186.475C45.52 188.246 45.9091 189.985 46.1949 191.747C46.4807 193.51 46.7189 195.328 46.9174 197.13Z" fill="#E0E0E0"/>
<path d="M56.747 185.864C57.4378 182.87 62.6543 178.527 71.8328 178.376C75.1363 178.362 78.408 179.021 81.4481 180.314C75.4693 180.568 67.5612 181.513 67.1562 183.768C66.7513 186.023 69.8082 184.562 72.6586 183.474C78.8438 181.092 82.7423 180.925 82.7423 180.925C85.7264 181.903 88.4032 183.644 90.5075 185.975C83.9968 183.656 76.5491 184.776 73.532 186.396C70.5148 188.015 70.6101 189.381 73.1588 188.5C75.7075 187.618 80.6699 185.705 93.5246 188.5C93.5246 188.5 96.1766 190.247 97.2087 195.566C94.8268 193.542 91.3729 192.716 88.3716 192.105C85.3138 191.414 82.1847 191.089 79.0502 191.136C78.5024 191.136 77.3908 191.223 77.1129 191.811C76.835 192.398 77.4384 192.986 77.9545 193.184C79.0505 193.529 80.1962 193.69 81.3448 193.661C82.8375 193.661 84.3541 193.827 85.8388 193.978C88.3259 194.128 90.796 194.486 93.2229 195.05C94.533 195.415 97.2484 198.814 97.0976 202.657C93.9216 202.085 87.1648 198.25 82.4644 198.726C77.7639 199.203 83.3377 200.092 87.2283 201.497C90.5869 202.704 96.6609 205.348 96.6609 205.348C96.2968 208.573 95.7266 211.772 94.9538 214.924C91.7126 215.518 88.3939 215.555 85.1401 215.035C85.1401 215.035 82.0515 205.912 79.6695 205.07C77.2875 204.229 79.1693 207.857 81.2575 211.025C83.3457 214.193 83.9571 215.392 83.9571 215.392C83.9571 215.392 74.4292 217.179 70.5783 214.027C70.4434 212.089 70.6895 207.039 70.7371 203.705C70.7848 200.171 71.5311 197.202 70.4989 196.559C69.4667 195.916 68.3869 198.782 67.7597 202.252C67.2516 205.732 67.2142 209.266 67.6485 212.756C67.6485 212.756 60.9869 211.541 58.6844 209.652C56.0483 204.006 59.1131 197.527 59.7801 196.559C60.447 195.59 58.9861 192.486 55.6672 196.757C54.63 198.031 53.9271 199.543 53.622 201.157C53.317 202.771 53.4196 204.435 53.9204 205.999C53.9204 205.999 49.0692 205.555 47.0445 201.394C43.7891 194.749 46.5125 187.817 56.747 185.864Z" fill="#E6E6E6"/>
<path d="M38.382 164.037C42.9554 163.33 49.4344 164.497 52.7612 168.229C56.088 171.961 56.2547 176.479 55.2781 178.797C54.3015 181.116 53.1661 175.248 49.7202 172.445C46.2743 169.643 44.5593 169.825 47.5129 172.795C50.4666 175.764 54.3174 181.187 54.8653 184.633C55.4131 188.079 52.1419 191.882 51.1176 191.604C50.0934 191.326 51.332 187.825 49.7361 182.823C48.1402 177.821 44.7339 174.478 42.1455 173.676C39.5571 172.874 40.2003 173.74 43.6224 177.646C47.0445 181.552 50.9588 189.556 49.3153 193.272C47.6717 196.988 43.8764 198.242 42.876 197.893C41.8756 197.543 44.4084 192.851 42.5346 186.729C40.6608 180.608 36.5797 176.256 34.3565 177.567C32.1333 178.877 33.7769 180.576 35.8413 185.149C37.9056 189.723 40.6052 198.869 39.581 201.783C38.5567 204.697 33.0782 206.595 32.2762 205.674C31.4743 204.753 34.031 199.822 32.7685 193.399C31.5061 186.975 28.878 184.458 28.6001 187.047C28.3222 189.635 31.776 202.133 30.6962 204.229C29.6164 206.325 19.7074 209.501 19.7074 209.501C19.7074 209.501 14.6179 203.046 14.3321 201.124C14.0462 199.203 18.699 191.485 21.2318 189.294C23.7647 187.102 20.6125 186.912 18.5879 188.365C16.5632 189.818 12.0136 195.439 11.6325 198.353C9.07586 195.36 6.81299 191.58 9.10762 189.159C11.4023 186.737 18.2623 182.751 22.272 181.37C26.2816 179.988 29.267 176.074 23.9473 177.074C18.6276 178.075 9.39346 182.902 7.76578 186.602C7.14647 183.259 8.07544 173.898 13.8954 172.429C19.7153 170.961 25.8052 171.405 27.6076 170.794C29.4099 170.182 27.1074 168.571 22.7166 168.301C18.3258 168.031 12.4741 168.301 10.1875 171.119C10.3621 167.467 10.8544 163.791 17.5954 163.767C24.3363 163.743 27.1947 166.522 28.2587 165.776C29.3226 165.029 24.0743 162.195 20.16 161.949C22.8675 158.82 26.1705 158.034 29.8308 158.868C33.1745 159.598 36.182 161.415 38.382 164.037Z" fill="#F0F0F0"/>
<path d="M61.1378 148.53C62.4558 145.267 67.3547 144.171 69.6731 145.219C67.1641 145.823 65.0442 147.824 66.4495 147.212C69.4032 145.942 71.2532 145.37 74.6594 146.077C75.6418 146.283 76.5539 146.74 77.3068 147.404C78.0596 148.068 78.6275 148.915 78.9549 149.864C76.7053 149.135 74.3475 148.797 71.9837 148.864C70.8562 148.927 67.8628 149.388 71.539 149.412C77.3272 149.412 79.4789 151.54 79.4789 151.54C79.4789 151.54 81.4083 153.517 81.5512 155.772C78.55 152.508 73.6113 151.944 71.801 151.754C69.9907 151.563 68.3075 152.5 71.3167 152.738C74.3259 152.977 79.8045 155.12 81.448 158.138C83.0916 161.155 81.8371 165.847 81.8371 165.847C81.8371 165.847 75.1279 156.454 72.595 157.534C72.5236 158.947 79.6695 163.783 80.8684 166.395C82.0673 169.007 79.3519 174.502 79.3519 174.502C79.3519 174.502 72.7062 173.994 70.9912 172.85C69.2761 171.707 69.9987 164.458 69.0935 163.322C68.1884 162.187 65.6635 167.745 66.7671 172.525C66.7671 172.525 63.4324 172.977 62.7972 170.349C62.162 167.721 63.488 162.33 65.0045 159.908C66.521 157.487 64.139 157.979 62.8766 159.821C61.6141 161.663 59.9309 165.744 60.2723 168.467C60.2723 168.467 56.4373 166.657 55.4607 164.601C54.4841 162.544 58.1365 157.137 59.9706 155.787C61.8047 154.438 60.1929 153.318 58.3826 154.66C56.5723 156.002 53.5393 160.138 53.2137 162.258C51.2605 158.519 51.1176 153.779 54.4682 150.349C58.0253 146.791 61.1378 148.53 61.1378 148.53Z" fill="#F0F0F0"/>
<path d="M96.9308 14.7907C132.986 -9.98972 184.079 7.81152 195.116 56.8722C205.866 7.85122 256.912 -9.82298 292.641 15.2353C336.994 46.328 320.367 142.425 195.314 197.782C65.8223 144.346 50.6094 46.6217 96.9308 14.7907Z" fill="white"/>
<path d="M195.33 198.631L195.028 198.504C156.972 182.839 126.697 162.568 105.077 138.375C86.3231 117.43 75.1596 94.5788 72.8014 72.2915C70.1813 47.5111 78.8358 26.3195 96.5338 14.1556C105.013 8.28169 114.805 4.57994 125.05 3.3755C135.295 2.17106 145.678 3.50078 155.289 7.24785C174.94 14.9575 189.343 31.7663 195.163 53.6486C200.856 31.7901 215.148 15.0369 234.752 7.39871C244.324 3.68892 254.667 2.4072 264.855 3.66797C275.044 4.92874 284.762 8.69276 293.142 14.624C309.577 26.1448 317.676 46.3201 315.373 69.9651C313.214 92.1333 302.328 115.135 283.915 136.493C262.676 161.107 232.989 181.973 195.687 198.488L195.33 198.631ZM97.3595 15.418C80.13 27.2564 71.7216 47.9716 74.2783 72.1327C76.5967 94.1024 87.6332 116.66 106.173 137.367C127.611 161.314 157.607 181.37 195.306 196.972C232.258 180.568 261.668 159.892 282.693 135.509C300.907 114.389 311.665 91.6728 313.793 69.8222C316.048 46.7409 308.18 27.0738 292.205 15.8785C284.03 10.0932 274.55 6.42093 264.611 5.18932C254.673 3.9577 244.583 5.20499 235.244 8.81996C215.227 16.6249 200.872 34.2276 195.854 57.0469L195.123 60.3975L194.369 57.0548C189.232 34.1879 174.758 16.5614 154.67 8.6691C145.294 5.01931 135.166 3.72603 125.174 4.90271C115.182 6.07939 105.631 9.69007 97.3595 15.418Z" fill="#E0E0E0"/>
<path d="M200.015 275.839C200.253 275.839 200.483 278.507 199.133 279.563C197.545 280.777 193.067 282.691 187.287 281.659C181.507 280.626 178.45 278.673 176.219 276.617C173.988 274.56 170.859 271.646 168.279 270.94C165.897 270.289 163.261 269.05 162.514 268.256C161.768 267.462 162.038 264.111 162.038 264.111L200.015 275.839Z" fill="#263238"/>
<path d="M164.666 251.281C164.666 251.281 164.229 251.281 164.039 252.075C163.816 252.996 163.491 255.679 163.038 257.18C162.403 259.26 161.832 263.571 162.07 265.302C162.308 267.033 166.23 268.431 168.731 269.518C171.663 270.975 174.358 272.865 176.727 275.124C179.347 277.506 184.984 280.047 188.772 280.285C194.552 280.65 198.379 279.269 199.633 277.244C201.221 274.735 200.142 273.195 193.639 269.788C192.408 269.145 188.081 266.319 186.652 265.294C185.104 264.221 183.646 263.023 182.293 261.714C181.611 261.046 180.966 260.341 180.363 259.602C179.722 258.944 179.186 258.192 178.775 257.37C178.704 257.196 178.664 256.989 178.609 256.799C178.441 256.281 178.322 255.75 178.251 255.211C178.172 254.655 178.14 253.845 177.632 253.488C176.889 253.142 176.065 253.005 175.25 253.091C174.385 253.109 173.522 253.191 172.669 253.337C171.677 253.504 170.542 253.535 169.922 254.433C169.494 255.154 169.264 255.976 169.255 256.815C169.255 257.196 169.208 257.609 169.184 257.974C169.184 258.141 169.232 258.442 169.009 258.363C168.787 258.283 168.572 257.696 168.493 257.497C168.334 257.053 168.239 256.576 168.056 256.14C167.85 255.628 167.583 255.143 167.262 254.695C166.974 254.283 166.639 253.907 166.262 253.575C165.879 253.332 165.51 253.067 165.158 252.781C164.851 252.34 164.68 251.818 164.666 251.281Z" fill="#455A64"/>
<path d="M194.687 270.32C186.286 270.495 183.396 275.537 182.888 278.721C184.758 279.534 186.743 280.051 188.772 280.253C194.552 280.618 198.617 279.245 199.887 277.22C201.34 274.862 200.515 272.861 194.687 270.32Z" fill="#FAFAFA"/>
<path d="M182.094 269.796C182 269.793 181.91 269.757 181.84 269.693C181.764 269.616 181.721 269.512 181.721 269.403C181.721 269.295 181.764 269.191 181.84 269.113C182.864 268.152 184.081 267.42 185.411 266.968C186.741 266.516 188.152 266.354 189.55 266.493C189.636 266.528 189.707 266.591 189.753 266.671C189.799 266.752 189.817 266.846 189.803 266.937C189.789 267.029 189.745 267.113 189.678 267.177C189.61 267.24 189.523 267.279 189.431 267.287C188.164 267.177 186.889 267.331 185.686 267.741C184.483 268.152 183.378 268.808 182.444 269.669C182.4 269.717 182.345 269.753 182.284 269.775C182.224 269.797 182.158 269.805 182.094 269.796Z" fill="#F0F0F0"/>
<path d="M178.624 267.526C178.529 267.521 178.439 267.481 178.37 267.414C178.295 267.338 178.252 267.236 178.252 267.129C178.252 267.021 178.295 266.919 178.37 266.843C179.395 265.88 180.614 265.148 181.945 264.696C183.276 264.244 184.689 264.082 186.088 264.223C186.141 264.23 186.191 264.248 186.237 264.276C186.283 264.303 186.322 264.339 186.354 264.382C186.386 264.425 186.409 264.473 186.422 264.525C186.435 264.577 186.437 264.63 186.429 264.683C186.423 264.737 186.405 264.789 186.378 264.836C186.35 264.883 186.313 264.923 186.269 264.955C186.225 264.987 186.175 265.01 186.122 265.022C186.069 265.034 186.014 265.035 185.961 265.024C184.696 264.914 183.422 265.069 182.22 265.48C181.018 265.89 179.915 266.546 178.982 267.406C178.935 267.452 178.879 267.487 178.817 267.507C178.755 267.528 178.689 267.534 178.624 267.526Z" fill="#F0F0F0"/>
<path d="M175.401 264.961C175.305 264.954 175.214 264.918 175.139 264.858C175.063 264.781 175.02 264.676 175.02 264.568C175.02 264.459 175.063 264.355 175.139 264.278C176.163 263.315 177.382 262.583 178.713 262.131C180.045 261.679 181.457 261.518 182.856 261.658C182.943 261.693 183.014 261.757 183.06 261.838C183.106 261.919 183.123 262.013 183.108 262.105C183.093 262.197 183.048 262.282 182.979 262.345C182.91 262.408 182.822 262.445 182.729 262.452C181.463 262.341 180.188 262.495 178.984 262.905C177.781 263.316 176.677 263.972 175.742 264.834C175.7 264.881 175.647 264.918 175.587 264.94C175.528 264.962 175.464 264.969 175.401 264.961Z" fill="#F0F0F0"/>
<path d="M146.778 296.895C146.698 300.865 146.174 303.501 144.864 305.867C143.554 308.233 140.894 309.043 138.218 308.488C135.543 307.932 132.017 306.217 131.128 302.834C130.239 299.452 129.699 297.133 130.175 293.441L146.778 296.895Z" fill="#263238"/>
<path d="M134.455 268.693C133.359 268.82 133.224 274.14 132.787 279.475C132.311 285.192 130.699 287.614 130.263 292.306C129.762 297.665 130.731 300.016 132.716 303.176C134.701 306.336 141.45 309.25 144.53 304.51C147.047 300.651 147.008 296.467 146.571 291.147C146.268 286.654 146.22 282.147 146.428 277.649C146.5 273.679 147.222 269.59 146.261 269.177C146.206 269.773 146.158 270.519 146.103 271.099C146.09 271.819 145.997 272.535 145.825 273.234C145.721 273.536 145.491 273.862 145.372 273.377C145.32 273.048 145.32 272.714 145.372 272.385C145.483 270.908 144.737 270.797 144.332 270.717C142.627 270.45 140.91 270.27 139.187 270.178C138.337 270.178 135.423 270.13 135.066 270.63C134.829 271.125 134.72 271.671 134.749 272.218C134.685 273.012 134.518 273.615 134.487 273.369C134.415 272.79 134.487 271.297 134.487 270.932C134.487 270.567 134.526 270.138 134.487 269.765C134.447 269.391 134.455 269.034 134.455 268.693Z" fill="#455A64"/>
<path d="M130.072 295.403C129.983 298.267 130.818 301.085 132.454 303.438C134.439 306.614 141.712 309.504 144.8 304.764C146.341 302.382 146.674 299.674 146.793 296.895C144.689 293.402 133.049 292.258 130.072 295.403Z" fill="#FAFAFA"/>
<path d="M144.157 291.179C144.113 291.19 144.067 291.19 144.022 291.179C143.975 291.179 138.79 289.233 133.859 290.567C133.755 290.594 133.645 290.579 133.551 290.526C133.458 290.472 133.389 290.385 133.359 290.281C133.345 290.23 133.341 290.176 133.347 290.123C133.354 290.069 133.371 290.018 133.398 289.971C133.424 289.925 133.46 289.884 133.502 289.851C133.545 289.819 133.593 289.795 133.645 289.781C138.861 288.368 144.149 290.345 144.348 290.432C144.4 290.445 144.449 290.467 144.493 290.499C144.536 290.53 144.573 290.57 144.601 290.616C144.629 290.662 144.647 290.712 144.656 290.765C144.664 290.818 144.662 290.872 144.65 290.924C144.637 290.977 144.614 291.026 144.583 291.069C144.551 291.112 144.512 291.149 144.466 291.177C144.42 291.205 144.369 291.224 144.317 291.232C144.264 291.241 144.209 291.239 144.157 291.226V291.179Z" fill="#F0F0F0"/>
<path d="M133.963 286.55C133.883 286.548 133.807 286.521 133.743 286.474C133.679 286.428 133.631 286.362 133.605 286.288C133.566 286.188 133.569 286.076 133.612 285.978C133.655 285.88 133.735 285.803 133.835 285.764C138.726 283.906 144.316 286.216 144.523 286.319C144.572 286.342 144.615 286.375 144.652 286.415C144.688 286.455 144.716 286.502 144.733 286.553C144.751 286.604 144.759 286.658 144.755 286.712C144.752 286.766 144.737 286.819 144.713 286.867C144.665 286.963 144.582 287.036 144.482 287.071C144.381 287.107 144.27 287.102 144.173 287.058C144.126 287.058 138.679 284.795 134.129 286.526C134.077 286.549 134.019 286.557 133.963 286.55Z" fill="#F0F0F0"/>
<path d="M133.994 282.794C133.918 282.79 133.844 282.764 133.782 282.719C133.72 282.674 133.672 282.612 133.645 282.54C133.605 282.44 133.606 282.328 133.648 282.229C133.689 282.129 133.768 282.05 133.867 282.008C139.243 279.856 144.554 282.413 144.753 282.524C144.8 282.55 144.841 282.585 144.874 282.627C144.908 282.669 144.933 282.717 144.947 282.769C144.962 282.821 144.967 282.875 144.96 282.928C144.954 282.981 144.938 283.033 144.912 283.08C144.886 283.127 144.85 283.168 144.808 283.201C144.766 283.235 144.718 283.26 144.667 283.274C144.615 283.289 144.561 283.294 144.508 283.287C144.454 283.281 144.403 283.265 144.356 283.239C144.308 283.239 139.179 280.769 134.177 282.77C134.119 282.794 134.056 282.802 133.994 282.794Z" fill="#F0F0F0"/>
<path d="M189.851 118.525C193.234 130.904 192.583 151.873 191.836 165.72C191.114 179.027 185.913 206.285 184.119 224.007C182.324 241.729 180.244 257.355 180.244 257.355C177.288 259.233 173.835 260.176 170.335 260.062C164.817 259.737 163.038 257.164 163.038 257.164C163.038 257.164 161.8 245.731 161.498 237.91C161.196 230.089 160.299 220.148 160.323 213.892C160.347 207.635 160.521 198.313 162.014 193.557L162.133 187.023C162.133 187.023 158.425 209.644 157.028 221.847C155.63 234.051 148.111 274.489 148.111 274.489C148.111 274.489 146.976 277.196 139.568 276.76C132.16 276.323 131.811 273.52 131.811 273.52C131.811 273.52 131.763 250.36 131.326 241.848C130.89 233.336 132.557 214.733 133.835 210.311C135.114 205.888 133.645 188.254 133.772 181.251C133.899 174.248 131.604 152.476 133.335 138.598C135.066 124.719 140.211 116.596 140.211 116.596C148.469 125.521 174.011 125.481 189.851 118.525Z" fill="#FF4444"/>
<path opacity="0.3" d="M189.851 118.525C193.234 130.904 192.583 151.873 191.836 165.72C191.114 179.027 185.913 206.285 184.119 224.007C182.324 241.729 180.244 257.355 180.244 257.355C177.288 259.233 173.835 260.176 170.335 260.062C164.817 259.737 163.038 257.164 163.038 257.164C163.038 257.164 161.8 245.731 161.498 237.91C161.196 230.089 160.299 220.148 160.323 213.892C160.347 207.635 160.521 198.313 162.014 193.557L162.133 187.023C162.133 187.023 158.425 209.644 157.028 221.847C155.63 234.051 148.111 274.489 148.111 274.489C148.111 274.489 146.976 277.196 139.568 276.76C132.16 276.323 131.811 273.52 131.811 273.52C131.811 273.52 131.763 250.36 131.326 241.848C130.89 233.336 132.557 214.733 133.835 210.311C135.114 205.888 133.645 188.254 133.772 181.251C133.899 174.248 131.604 152.476 133.335 138.598C135.066 124.719 140.211 116.596 140.211 116.596C148.469 125.521 174.011 125.481 189.851 118.525Z" fill="white"/>
<path opacity="0.6" d="M162.133 187.007C162.133 187.007 165.238 163.616 166.103 153.453C171.113 153.024 176.989 148.737 180.395 144.822C178.505 150.984 171.923 154.755 168.827 155.7L163.038 187.507L162.022 193.542L162.133 187.007Z" fill="#FF4444"/>
<path opacity="0.6" d="M136.09 152.921C136.67 142.972 138.123 132.992 141.466 123.544C141.879 122.368 142.315 121.209 142.784 120.05C142.839 119.915 142.95 120.05 142.911 120.137C139.96 128.877 138.078 137.941 137.305 147.133C138.112 147.153 138.915 147.012 139.666 146.718C140.417 146.423 141.102 145.981 141.68 145.418C143.005 144.071 143.966 142.41 144.475 140.59C145.078 138.725 145.483 136.787 145.952 134.89C146.452 132.825 146.944 130.753 147.476 128.697C148.119 126.227 148.802 123.774 149.453 121.312C149.453 121.201 149.596 121.257 149.58 121.352C149.096 123.607 148.627 125.87 148.119 128.125C147.611 130.38 147.047 132.69 146.531 134.969C145.642 138.677 145.015 143.036 142.077 145.759C140.805 147.007 139.095 147.708 137.313 147.713C137.234 148.594 137.146 149.483 137.083 150.372C136.486 160.358 136.425 170.369 136.9 180.361C137.242 190.548 137.869 200.775 137.416 210.978C136.956 221.442 135.034 231.756 133.923 242.158C132.772 252.702 132.7 263.31 132.502 273.917C132.502 274.116 132.502 274.306 132.502 274.505C132.338 274.339 132.195 274.155 132.073 273.957C131.777 264.607 132.042 255.247 132.867 245.929C133.788 235.409 135.773 225.015 136.519 214.479C137.265 203.943 136.646 193.518 136.265 183.069C135.797 173.049 135.503 162.989 136.09 152.921Z" fill="#FF4444"/>
<path d="M184.039 69.6237C187.573 70.1795 192.773 72.1406 195.449 75.4436C198.125 78.7466 209.884 103.17 209.884 103.17L234.887 123.472L231.846 133C231.846 133 210.043 122.757 204.485 119.645C200.435 117.382 199.014 116.707 195.131 111.062C190.368 104.162 183.365 91.2837 183.365 91.2837L184.039 69.6237Z" fill="#B16668"/>
<path d="M149.271 44.2557C148.955 44.7899 148.55 45.2654 148.072 45.661C147.185 46.2358 146.191 46.6248 145.15 46.8044C143.773 47.0928 142.454 47.6051 141.243 48.3209C140.64 48.6843 140.114 49.163 139.696 49.7298C139.278 50.2965 138.975 50.9402 138.806 51.6239C138.528 53.0134 138.973 54.5617 138.314 55.8162C138.117 56.1536 137.851 56.4452 137.533 56.6716C137.214 56.8979 136.852 57.0539 136.468 57.129C136.085 57.2042 135.69 57.1968 135.31 57.1073C134.93 57.0178 134.574 56.8483 134.264 56.6102C134.399 56.7293 134.479 57.6344 134.614 57.8805C134.833 58.2189 135.101 58.5238 135.408 58.7857C136.103 59.501 137.016 59.9647 138.004 60.1037C137.296 61.3475 137.035 62.7964 137.264 64.2092C137.494 65.622 138.2 66.9136 139.266 67.8689C139.981 68.4803 140.854 68.9567 141.251 69.8063C141.775 70.9496 141.204 72.2676 141.164 73.5221C141.179 74.4956 141.45 75.448 141.948 76.2841C142.447 77.1202 143.157 77.8105 144.006 78.2861C145.722 79.216 147.654 79.671 149.604 79.6041C151.581 79.6041 153.574 79.35 155.527 79.7629C157.909 80.2552 159.91 81.7082 162.181 82.4863C164.107 83.124 166.16 83.278 168.16 82.9346C170.159 82.5912 172.043 81.761 173.646 80.5172C176.179 78.5084 177.942 75.4754 180.895 74.1653C181.707 73.8824 182.503 73.5537 183.277 73.1807C184.058 72.674 184.696 71.9746 185.128 71.1499C185.561 70.3253 185.774 69.4032 185.747 68.4724C185.674 66.6031 185.028 64.8014 183.897 63.3114C182.491 61.3265 181.229 59.8258 180.427 57.5471C179.625 55.2683 177.187 54.0059 175.441 52.7355C171.55 49.893 171.224 44.7956 167.135 42.0325C164.614 40.2728 161.626 39.3027 158.552 39.2456C155.694 39.2456 152.327 39.849 150.541 42.2866C150.033 42.89 149.676 43.5967 149.271 44.2557Z" fill="#263238"/>
<path d="M137.917 119.208C138.957 115.818 141.093 112.126 140.727 107.116C140.291 101.209 137.218 94.023 137.242 91.5695C137.313 81.6764 141.029 74.6893 143.649 73.1569C143.649 73.1569 150.898 70.243 154.837 68.8455C158.775 67.4481 159.243 66.5747 161.633 66.4001C167.58 65.9713 175.599 68.2342 178.521 68.5121C179.617 68.6074 185.667 69.6237 185.667 69.6316C188.605 73.4918 191.151 77.6358 193.266 82.002C195.417 86.6468 197.569 97.318 191.344 103.71C190.36 113.134 190.939 119.208 190.955 123.051C172.685 135.144 152.447 129.205 137.917 119.208Z" fill="#37474F"/>
<path d="M197.799 38.261C197.473 37.8311 197.218 37.3511 197.045 36.8398C196.946 36.3392 196.946 35.8239 197.045 35.3233C197.32 34.0666 197.451 32.7826 197.434 31.4962C197.22 28.9872 195.394 26.8196 193.178 25.6287C190.898 24.5386 188.401 23.9768 185.874 23.9851C183.754 23.9057 181.586 23.9851 179.593 23.2467C178.505 22.8497 177.513 22.2304 176.417 21.7778C173.964 20.7284 171.216 20.5961 168.674 21.4051C166.132 22.2142 163.965 23.9105 162.57 26.1844C162.001 27.1479 161.537 28.1701 161.188 29.2334C153.915 31.6153 154.487 42.5486 155.885 46.2248C157.33 50.0359 162.014 57.5232 162.046 59.1271L172.106 54.776L182.094 50.4805C183.428 49.9009 184.897 48.8926 186.366 49.0275C187.989 49.2459 189.634 49.2459 191.257 49.0275C192.198 48.8798 193.092 48.5161 193.869 47.9651C194.646 47.4141 195.284 46.6907 195.735 45.8516C195.846 46.3504 195.832 46.8691 195.693 47.361C195.555 47.8529 195.296 48.3028 194.941 48.6702C196.002 48.4754 196.979 47.9625 197.742 47.1996C198.505 46.4367 199.018 45.4598 199.213 44.3986C199.554 42.2469 199.048 40.0465 197.799 38.261Z" fill="#263238"/>
<path d="M190.59 35.6885C192.718 39.6585 190.431 45.3672 190.653 49.5198C190.653 59.5003 186.032 67.4799 176.362 64.947C175.822 67.6307 176.147 68.123 178.505 68.512C180.506 73.0537 180.578 80.0011 178.362 83.32C171.812 80.9777 157.012 72.2756 154.821 68.8455C159.243 66.6541 161.061 65.7251 161.419 62.6603L162.578 53.1325C159.124 55.2683 155.289 50.3297 155.63 46.2009C155.853 41.0956 161.188 39.9602 163.451 45.4069C164.15 47.0743 165.833 46.8996 166 45.7087C166.326 44.7162 165.857 43.9381 166.333 43.0012C168.128 42.1039 169.962 40.913 170.526 38.8248C171.026 37.2844 170.939 35.4662 172.011 34.2514C177.386 30.6943 187.136 32.4808 190.59 35.6885Z" fill="#B16668"/>
<path d="M176.195 67.1464C176.118 66.4083 176.18 65.6623 176.377 64.947C167.469 62.9144 165.333 59.1668 164.468 56.2131C164.383 57.2748 164.521 58.3424 164.871 59.3483C165.22 60.3543 165.775 61.2766 166.5 62.0569C169.962 65.9871 175.496 67.0273 176.195 67.1464Z" fill="#9A4A4D"/>
<path d="M189.526 45.0179L186.398 42.8265C186.53 42.6152 186.704 42.4331 186.909 42.2914C187.115 42.1497 187.346 42.0513 187.591 42.0023C187.835 41.9532 188.087 41.9545 188.331 42.0062C188.575 42.0578 188.806 42.1586 189.01 42.3024C189.427 42.603 189.713 43.0521 189.809 43.5573C189.905 44.0625 189.804 44.5852 189.526 45.0179Z" fill="#263238"/>
<path d="M177.862 41.1353L174.075 42.7233C173.962 42.4817 173.9 42.2199 173.891 41.9535C173.882 41.6872 173.928 41.4218 174.024 41.1733C174.12 40.9249 174.266 40.6985 174.452 40.5078C174.638 40.317 174.861 40.1659 175.107 40.0634C175.616 39.8563 176.186 39.852 176.698 40.0513C177.21 40.2506 177.627 40.6385 177.862 41.1353Z" fill="#263238"/>
<path d="M181.094 42.6757L180.443 53.1722L186.239 51.5445L181.094 42.6757Z" fill="#9A4A4D"/>
<path d="M188.954 47.6698C189.185 46.8758 188.081 47.7254 187.104 47.4475C186.128 47.1696 185.643 45.8595 185.413 46.6535C185.383 47.0839 185.502 47.5114 185.75 47.8645C185.998 48.2175 186.36 48.4746 186.775 48.5928C187.19 48.7109 187.633 48.6829 188.03 48.5135C188.426 48.344 188.753 48.0433 188.954 47.6619V47.6698Z" fill="#263238"/>
<path d="M178.339 45.669C178.41 44.875 177.497 45.8913 176.481 45.8039C175.464 45.7166 174.742 44.5336 174.67 45.3593C174.724 45.7871 174.923 46.1834 175.234 46.4819C175.545 46.7804 175.949 46.9631 176.379 46.9994C176.809 47.0357 177.238 46.9233 177.594 46.6811C177.951 46.439 178.214 46.0816 178.339 45.669Z" fill="#263238"/>
<path d="M175.798 52.8784C175.975 53.1088 176.13 53.3562 176.258 53.6168C176.373 53.8119 176.504 53.9977 176.647 54.1726C177.192 54.8633 177.898 55.4088 178.704 55.7606C178.894 55.84 179.101 55.9115 179.299 55.975C179.607 56.0323 179.908 56.1228 180.197 56.2449C180.316 56.3085 180.149 56.499 180.07 56.5228C179.509 56.6316 178.928 56.5708 178.402 56.3482C177.889 56.1761 177.404 55.9271 176.965 55.6097C176.548 55.301 176.176 54.9347 175.861 54.522C175.486 54.134 175.254 53.6301 175.202 53.0928C175.218 53.0321 175.247 52.9761 175.289 52.9298C175.331 52.8834 175.384 52.848 175.443 52.8268C175.502 52.8057 175.565 52.7993 175.627 52.8083C175.689 52.8173 175.747 52.8414 175.798 52.8784Z" fill="#9A4A4D"/>
<path d="M191.281 288.042C191.979 285.43 189.494 283.667 188.351 282.103C186.572 279.721 186.191 276.037 186.31 273.25C186.453 269.773 186.136 267.271 188.343 264.199C190.955 260.57 194.568 256.338 206.509 246.096L192.765 230.772C189.589 235.488 181.507 252.13 181.507 252.13L180.975 253.154C179.675 254.83 178.102 256.274 176.322 257.426L175.528 257.815C174.138 258.72 170.645 259.609 170.589 262.944C170.534 266.279 171.764 267.16 173.13 269.947C174.234 271.752 174.748 273.856 174.599 275.966C174.559 278.649 174.353 279.801 174.242 282.198C174.146 284.223 175.83 287.224 179.577 288.685C184.992 290.821 190.606 290.623 191.281 288.042Z" fill="#F28F8F"/>
<path d="M168.596 262.968C166.881 265.181 165.416 267.578 164.229 270.114L167.826 275.735L171.193 270.328C169.859 268.066 168.977 265.566 168.596 262.968Z" fill="#263238"/>
<path d="M167.85 275.735L173.059 275.561C173.34 274.438 173.199 273.251 172.662 272.226C172.297 271.512 171.807 270.87 171.217 270.328L167.85 275.735Z" fill="black"/>
<path d="M169.708 261.769C169.294 262.058 168.941 262.424 168.668 262.849C168.406 263.389 168.565 266.819 169.589 268.534C170.613 270.249 172.312 272.067 172.662 274.449C173.011 276.831 171.915 280.42 172.709 283.763C173.503 287.105 176.473 291.004 183.182 292.155C187.946 292.949 189.828 292.099 191.479 291.123C192.138 288.995 192.098 288.431 189.526 286.518C186.953 284.604 169.708 261.769 169.708 261.769Z" fill="#263238"/>
<path d="M178.99 253.369C176.735 255.941 175.925 256.934 173.892 258.045C171.439 259.403 170.923 259.959 169.708 261.769C169.12 264.62 169.644 265.826 172.09 269.59C173.749 272.162 174.265 273.838 174.099 277.284C173.892 281.46 172.384 283.374 177.163 287.828C180.879 291.298 189.264 291.798 191.622 289.606C193.774 283.985 188.764 284.207 187.795 278.125C187.138 274.801 187.318 271.366 188.319 268.129C188.812 266.641 189.433 265.198 190.177 263.818C191.027 262.436 191.765 261.436 191.162 260.642L189.875 262.15C188.645 262.38 185.715 261.61 183.825 259.919C179.268 255.846 180.998 253.138 180.998 253.138L181.53 252.114C181.054 251.519 180.268 251.916 178.99 253.369Z" fill="#37474F"/>
<path d="M236.999 135.088C238.872 142.155 240.572 146.474 241.993 165.514C243.319 183.363 241.993 191.318 240.405 200.116C239.857 203.244 238.158 206.881 234.998 211.43C225.097 225.682 205.811 247.954 205.811 247.954C205.811 247.954 201.618 247.723 196.68 243.357C191.916 239.14 191.312 232.185 191.312 232.185C191.312 232.185 192.511 229.843 200.737 216.671C208.963 203.498 210.456 188.984 210.456 188.984L207.383 131.706C219.412 133.278 219.864 133.365 236.999 135.088Z" fill="#263238"/>
<path d="M196.712 243.372C191.948 239.156 191.344 232.201 191.344 232.201C191.344 232.201 192.543 229.859 200.769 216.686C208.995 203.514 210.487 189 210.487 189L208.105 145.148C217.578 144.005 230.718 144.616 230.718 144.616C230.718 150.88 229.13 158.574 220.253 162.878C220.253 162.878 220.793 193.677 220.69 202.68C220.603 209.548 218.062 226.945 216.855 234.813C210.725 242.261 205.819 247.938 205.819 247.938C205.819 247.938 201.65 247.739 196.712 243.372Z" fill="black"/>
<path d="M211.853 276.696L211.972 275.322L214.743 246.858L194.163 250.883L197.895 274.33L198.006 275.513C198.006 275.513 198.172 281.865 206.74 281.865C212.941 281.897 211.853 276.696 211.853 276.696Z" fill="#F28F8F"/>
<path d="M200.364 302.064L207.883 299.769L208.383 293.267L200.721 295.641L200.364 302.064Z" fill="black"/>
<path d="M193.71 287.216C193.313 289.598 195.092 298.864 195.092 298.864L200.364 302.04L200.721 295.625C200.721 295.625 202.174 296.855 203.627 300.301C205.001 303.565 206.144 305.994 209.606 307.733C213.068 309.472 216.831 310.012 222.04 309.559C225.74 309.234 228.066 307.86 228.709 307.019C228.911 306.598 229.004 306.134 228.979 305.669L193.71 287.216Z" fill="#263238"/>
<path d="M211.972 275.323C212.988 275.283 212.877 276.172 213.917 281.603C214.711 285.66 219.023 294.394 221.968 297.411C224.549 300.063 229.575 301.008 228.979 305.693C226.597 308.416 218.586 309.234 213.973 307.956C208.081 306.328 206.287 303.612 204.104 298.34C202.349 294.116 200.681 293.576 198.196 291.861C196.553 290.71 194.314 289.043 193.71 287.217C193.71 283.247 195.457 280.73 196.092 278.753C196.727 276.776 196.489 274.576 197.871 274.33L197.982 275.513C197.982 275.513 199.141 278.689 205.787 279.062C212.433 279.435 211.829 276.68 211.829 276.68L211.972 275.323Z" fill="#37474F"/>
<path d="M234.426 126.894C234.426 126.894 235.601 137.295 232.004 146.601C228.892 154.676 223.27 159.09 217.49 160.797C217.49 160.797 218.118 197.639 218.451 202.776C218.784 207.913 217.411 226.413 215.91 238.577C214.41 250.741 214.187 254.917 214.187 254.917C214.187 254.917 210.86 257.569 203.778 257.45C196.696 257.331 194.56 254.218 194.56 254.218C194.56 254.218 190.59 239.926 190.78 228.866C190.892 222.514 192.368 219.41 191.4 213.074C190.431 206.738 183.46 178.337 181.777 165.069C180.189 152.087 180.768 141.789 188.009 132.666C197.625 139.669 225.24 133.079 234.426 126.894Z" fill="#263238"/>
<path d="M196.958 129.101C191.757 135.993 184.103 150.285 188.446 171.334C189.677 177.32 190.923 183.109 192.122 188.698C194.925 201.783 197.14 212.129 197.355 216.051C197.4 218.258 197.219 220.463 196.815 222.633C195.926 227.756 195.744 232.976 196.275 238.148C196.942 244.857 197.974 251.916 198.768 256.68C198.474 256.592 198.188 256.497 197.974 256.402C197.18 251.638 196.203 244.73 195.592 238.196C195.054 232.96 195.239 227.676 196.14 222.49C196.532 220.37 196.71 218.215 196.672 216.059C196.465 212.2 194.25 201.886 191.455 188.825C190.256 183.267 189.01 177.455 187.779 171.461C183.396 150.253 191.035 135.779 196.315 128.736L196.958 129.101Z" fill="black"/>
<path d="M243.168 130.277C241.993 125.838 238.118 116.064 235.498 109.49C235.569 109.672 237.824 95.1981 238.301 89.4258C238.928 81.8273 235.212 75.1339 224.93 73.4745C224.93 73.4745 219.555 108.728 220.364 112.991C221.174 117.255 235.585 137.819 235.585 137.819C235.585 137.819 243.97 133.31 243.168 130.277Z" fill="#FFA8A7"/>
<path d="M236.125 87.1072C229.614 78.0398 225.105 73.8238 221.039 72.863L202.952 73.268C202.952 73.268 199.054 73.9826 194.179 74.6892C189.304 75.3959 184.651 79.0403 183.857 84.2171C183.484 86.5276 186.009 95.46 189.534 105.298C192.202 112.753 193.933 117.787 193.813 124.02C200.165 137.2 234.49 136.112 233.1 123.011C233.1 123.011 235.998 115.072 235.617 107.545C240.587 100.915 239.746 92.1411 236.125 87.1072Z" fill="#FFA8A7"/>
<path d="M218.499 85.5907C222.818 87.6868 229.884 97.5005 224.533 108.458C227.82 104.845 228.503 97.6832 226.859 93.7211C224.97 89.1478 221.349 86.218 218.499 85.5907Z" fill="#F28F8F"/>
<path d="M187.073 108.998C187.073 108.998 189.931 116.794 190.328 121.312C190.51 123.416 190.407 129.197 187.422 133.008C191.455 138.304 202.651 142.48 208.129 143.33C212.828 144.042 217.619 143.87 222.254 142.821C226.299 141.846 230.127 140.129 233.545 137.756C234.744 136.962 235.887 136.049 236.999 135.128C236.085 131.618 236.427 127.521 235.077 122.797C235.808 114.262 235.982 107.957 235.982 107.957C238.276 106.303 239.988 103.966 240.873 101.28C243.382 93.737 238.007 86.4403 232.409 80.5727C230.084 78.0479 227.585 75.6893 224.93 73.5141C221.516 72.6645 218.324 72.1167 217.149 71.7673C218.157 72.0691 219.396 73.3553 220.237 74.0064C221.373 74.8639 222.492 75.7532 223.556 76.698C225.478 78.413 227.487 80.3027 227.947 82.9467C228.117 83.7824 228.117 84.6438 227.947 85.4795C227.718 86.2828 227.314 87.0257 226.765 87.6556C226.216 88.2854 225.536 88.7867 224.771 89.124C223.239 89.7906 221.582 90.121 219.912 90.0926C212.44 90.2514 204.151 86.6626 199.546 80.668C198.704 79.5723 197.847 78.4924 196.918 77.492C196.489 77.0236 194.687 74.6892 194.06 74.7369C192.56 74.9251 191.07 75.1901 189.597 75.5308C189.597 75.5308 192.773 80.5092 193.401 84.4076C194.077 89.6054 193.55 94.8891 191.86 99.8507C190.876 103.183 189.25 106.29 187.073 108.998Z" fill="#FF4444"/>
<path opacity="0.2" d="M223.382 108.704C221.704 109.97 219.791 110.889 217.754 111.405C215.717 111.922 213.597 112.027 211.519 111.713C209.436 111.37 207.447 110.6 205.676 109.45C204.369 108.42 203.157 107.275 202.055 106.028C201.984 105.965 201.928 106.139 201.944 106.187C202.793 108.151 204.166 109.843 205.914 111.078C207.674 112.257 209.692 112.995 211.797 113.23C213.901 113.548 216.05 113.379 218.078 112.737C220.204 111.987 222.073 110.649 223.469 108.878C223.501 108.831 223.509 108.632 223.382 108.704Z" fill="black"/>
<path d="M190.701 46.5741C188.009 45.2402 185.937 39.7061 188.319 33.9099C189.907 30.0988 195.259 26.2003 200.229 27.4151C207.295 24.6917 218.578 27.1531 222.318 33.2033C226.057 39.2535 226.161 47.0902 221.706 54.4505C218.808 59.2144 216.887 62.4856 216.887 62.4856L190.701 46.5741Z" fill="#263238"/>
<path d="M211.265 60.7071C211.496 59.7622 212.123 58.8888 211.988 57.8805C211.877 57.0865 211.297 57.1659 211.035 56.4116C210.875 55.8749 210.843 55.3083 210.941 54.7569C211.039 54.2055 211.264 53.6846 211.599 53.2356C212.26 52.3491 213.108 51.6197 214.084 51.0998C214.521 50.8457 214.981 49.8771 215.307 49.5118C215.707 49.09 216.015 48.5898 216.212 48.0429C216.699 46.9119 217.494 45.9403 218.506 45.2385C219.518 44.5367 220.707 44.1329 221.937 44.073C223.196 44.094 224.451 44.2349 225.684 44.4938C226.248 44.5812 226.78 44.4382 227.336 44.4938C228.179 44.5779 228.993 44.8492 229.718 45.2878C230.196 45.5601 230.604 45.9415 230.907 46.4009C231.211 46.8603 231.402 47.3848 231.464 47.9318C231.429 48.5438 231.474 49.1578 231.599 49.758C231.808 50.4064 232.157 51.0004 232.624 51.4968C233.11 51.9872 233.463 52.594 233.648 53.2595C233.78 53.7016 233.799 54.1699 233.701 54.6211C233.604 55.0722 233.395 55.4914 233.092 55.8399C232.711 56.1627 232.398 56.5589 232.173 57.0049C231.948 57.451 231.815 57.9377 231.782 58.4363C231.818 59.3432 231.68 60.2486 231.377 61.1041C231.218 61.4236 230.995 61.707 230.722 61.9365C230.449 62.166 230.131 62.3367 229.789 62.438C229.082 62.6444 228.265 62.565 227.685 63.0176C227.105 63.4702 226.994 64.3039 226.661 64.9708C226.401 65.462 226.009 65.8709 225.529 66.1515C225.049 66.432 224.501 66.5731 223.945 66.5588C222.993 66.5588 222.079 66.0347 221.127 66.138C220.505 66.2656 219.905 66.485 219.348 66.789C217.974 67.3847 216.454 67.5588 214.981 67.2893C214.142 67.1255 213.375 66.7039 212.787 66.0833C212.2 65.4627 211.82 64.6741 211.702 63.8275C211.615 62.7476 210.972 61.906 211.265 60.7071Z" fill="#263238"/>
<path d="M226.708 50.1471C225.732 48.4956 223.255 47.384 221.46 48.44C219.666 49.496 219.467 50.5282 218.721 51.8383C217.975 53.1484 215.227 53.6803 214.751 48.2971C214.275 43.2711 214.386 41.8499 212.52 39.0868C210.027 35.4027 203.786 34.3229 201.404 37.9831C200.666 34.0132 196.775 33.6003 194.925 35.0374C192.718 36.7366 191.344 38.0864 190.225 47.5666C189.081 57.2374 191.297 62.8588 193.48 64.55C195.131 65.8284 196.878 66.7256 200.507 66.9876L200.213 70.1159C200.007 71.8389 198.323 73.8953 194.226 74.6893C196.315 75.2689 213.354 79.8264 218.697 78.6037C224.041 77.3809 220.158 72.9266 217.212 71.7277C216.76 71.5451 216.339 71.2196 216.617 69.0917L217.697 58.1822C217.939 58.6174 218.281 58.9885 218.695 59.2647C219.11 59.5409 219.584 59.7142 220.079 59.7702C222.04 60.191 223.636 59.2541 224.843 57.9679C227.566 55.1333 227.892 52.1638 226.708 50.1471Z" fill="#FFA8A7"/>
<path d="M193.019 44.0015L196.648 42.8026C196.581 42.5591 196.466 42.3318 196.308 42.135C196.15 41.9381 195.953 41.7758 195.729 41.6581C195.506 41.5405 195.261 41.47 195.009 41.4511C194.757 41.4322 194.504 41.4652 194.266 41.5481C193.786 41.7232 193.391 42.0738 193.159 42.5292C192.928 42.9845 192.878 43.5108 193.019 44.0015Z" fill="#263238"/>
<path d="M205.31 43.6442L208.486 46.2247C208.664 46.0263 208.8 45.7938 208.886 45.5413C208.972 45.2888 209.005 45.0216 208.984 44.7558C208.963 44.49 208.889 44.2313 208.765 43.9951C208.641 43.759 208.471 43.5505 208.264 43.3822C207.832 43.0388 207.285 42.8745 206.735 42.9232C206.185 42.972 205.675 43.2301 205.31 43.6442Z" fill="#263238"/>
<path d="M201.777 44.1842L199.379 54.4267L194.29 51.2031L201.777 44.1842Z" fill="#F28F8F"/>
<path d="M200.443 66.9875C203.704 66.9424 206.925 66.26 209.924 64.9787C212.139 64.0497 214.028 61.4375 214.894 59.0555C214.865 60.4801 214.489 61.8761 213.797 63.1216C213.105 64.3672 212.118 65.4245 210.924 66.2014C207.057 68.7899 200.245 69.2027 200.245 69.2027L200.443 66.9875Z" fill="#F28F8F"/>
<path d="M192.805 46.709C192.805 45.915 193.599 47.0107 194.647 47.0266C195.695 47.0425 196.497 45.9309 196.489 46.7567C196.396 47.1788 196.159 47.5559 195.82 47.8243C195.481 48.0928 195.06 48.2363 194.628 48.2307C194.195 48.2251 193.778 48.0708 193.446 47.7936C193.114 47.5165 192.888 47.1335 192.805 46.709Z" fill="#263238"/>
<path d="M203.532 47.8603C203.707 47.0663 204.278 48.3129 205.271 48.5273C206.263 48.7417 207.303 47.8127 207.137 48.6146C206.962 49.0133 206.654 49.339 206.266 49.5363C205.878 49.7336 205.434 49.7903 205.009 49.6966C204.583 49.603 204.204 49.3649 203.935 49.0228C203.665 48.6807 203.523 48.2559 203.532 47.8206V47.8603Z" fill="#263238"/>
<path d="M203.302 34.4578C203.225 34.0461 203.296 33.6204 203.502 33.2558C203.708 32.8912 204.037 32.6111 204.429 32.4649L202.786 31.6709C201.809 31.3057 201.134 30.3688 200.157 29.9956C198.982 29.5589 197.418 30.2814 197.267 31.5201C197.266 31.9919 197.371 32.458 197.576 32.8831C197.781 33.3081 198.08 33.681 198.45 33.9735C199.191 34.5594 199.788 35.3061 200.197 36.157C200.333 36.5178 200.333 36.9157 200.197 37.2765C199.951 37.8005 199.332 38.0705 199.006 38.5231C198.801 38.8847 198.733 39.3077 198.813 39.7155C198.893 40.1234 199.116 40.489 199.443 40.7462C200.128 41.25 200.983 41.4666 201.825 41.3497C201.553 41.2575 201.309 41.0976 201.116 40.8851C200.923 40.6726 200.787 40.4144 200.721 40.1349C200.676 39.9847 200.676 39.8245 200.721 39.6743C200.904 39.1741 201.603 39.2059 202.127 39.1503C202.469 39.1017 202.796 38.9792 203.086 38.7914C203.376 38.6035 203.622 38.3548 203.806 38.0624C203.991 37.77 204.109 37.4411 204.154 37.0983C204.198 36.7556 204.168 36.4073 204.064 36.0776C203.775 35.5547 203.52 35.0136 203.302 34.4578Z" fill="#263238"/>
<path d="M203.913 55.4827C203.676 55.6494 203.458 55.841 203.262 56.0543C203.094 56.2099 202.914 56.3507 202.722 56.4751C202.347 56.7369 201.938 56.9478 201.507 57.1024C201.121 57.2479 200.718 57.344 200.308 57.3882C200.094 57.3882 199.88 57.3882 199.665 57.3882C199.356 57.3565 199.045 57.3565 198.736 57.3882C198.601 57.3882 198.736 57.6502 198.736 57.6899C199.241 57.9624 199.818 58.0732 200.388 58.0075C200.929 57.9891 201.464 57.8901 201.976 57.7138C202.462 57.5368 202.921 57.2937 203.341 56.9912C203.722 56.7213 204.286 56.2925 204.381 55.8082C204.376 55.7541 204.36 55.7018 204.332 55.6549C204.305 55.6079 204.267 55.5676 204.223 55.5366C204.178 55.5056 204.127 55.4847 204.074 55.4754C204.02 55.4661 203.965 55.4685 203.913 55.4827Z" fill="#B16668"/>
<path d="M224.708 139.391C224.954 139.336 225.2 139.272 225.438 139.201C225.793 139.13 226.124 138.969 226.399 138.732C226.597 138.508 226.72 138.228 226.752 137.931C226.783 137.633 226.721 137.333 226.573 137.073C226.259 136.556 225.759 136.179 225.176 136.017C224.598 135.866 224.003 135.786 223.405 135.779C224.001 135.564 224.454 135.374 224.438 134.707C224.444 134.52 224.41 134.333 224.337 134.16C224.265 133.988 224.155 133.833 224.017 133.707C223.353 133.177 222.539 132.869 221.69 132.825C220.805 132.821 219.922 132.909 219.054 133.087C215.156 133.714 211.067 133.77 207.391 132.349C207.256 132.293 207.089 132.206 207.097 132.063C207.107 132.01 207.13 131.96 207.163 131.917C207.196 131.875 207.239 131.84 207.287 131.817C208.457 131.175 209.752 130.793 211.083 130.697C212.266 130.515 213.79 130.396 214.656 129.482C214.908 129.246 215.083 128.939 215.156 128.601C215.186 128.434 215.167 128.261 215.101 128.105C215.035 127.948 214.924 127.814 214.783 127.72C214.641 127.649 214.488 127.606 214.33 127.593C211.844 127.091 209.304 126.904 206.771 127.037C205.58 127.156 204.516 127.593 203.373 127.831C202.245 128.018 201.108 128.143 199.967 128.204C194.409 128.673 190.772 126.616 186.334 124.401C181.538 122.003 176.732 119.621 171.915 117.255L160.005 92.3079C160.005 92.3079 153.653 75.7373 143.673 73.1569C138.798 74.6813 136.638 80.0884 136.082 83.3993C135.431 87.2343 137.266 92.824 141.783 101.312C146.142 109.498 153.971 122.17 155.646 125.29C158.608 130.848 158.711 131.722 166.191 134.778C171.407 136.914 187.152 140.233 190.01 141.186C192.869 142.139 196.076 142.456 198.863 143.743C201.882 145.211 205.05 146.353 208.312 147.149C211.261 147.905 214.347 147.965 217.324 147.323C217.832 147.196 220.269 146.855 220.285 146.101C220.283 145.988 220.244 145.879 220.174 145.791C219.955 145.489 219.676 145.235 219.356 145.046C219.035 144.856 218.678 144.734 218.308 144.687C217.571 144.592 216.827 144.56 216.085 144.592C214.489 144.6 212.904 144.331 211.4 143.798C211.313 143.798 211.21 143.711 211.226 143.623C211.242 143.536 211.321 143.512 211.4 143.496C211.762 143.43 212.129 143.403 212.496 143.417C214.895 143.447 217.29 143.224 219.642 142.75C220.195 142.646 220.73 142.461 221.23 142.202C221.741 141.941 222.143 141.508 222.365 140.979C222.5 140.614 222.5 140.138 222.834 139.892C223.172 139.67 223.559 139.534 223.961 139.495L224.708 139.391Z" fill="#B16668"/>
<path d="M222.159 136.263C220.881 136.351 219.634 136.581 218.364 136.724C217.093 136.867 215.982 136.962 214.767 136.994C213.636 137.033 212.504 137.002 211.377 136.898C210.178 136.787 208.995 136.581 207.812 136.43C207.756 136.43 207.748 136.533 207.812 136.541C210.172 137.214 212.623 137.517 215.077 137.438C216.267 137.394 217.452 137.27 218.626 137.065C219.823 136.89 221.008 136.641 222.175 136.319C222.175 136.319 222.199 136.263 222.159 136.263Z" fill="#9A4A4D"/>
<path d="M222.699 139.796C221.42 139.876 220.174 140.106 218.904 140.249C217.633 140.392 216.522 140.487 215.307 140.527C214.176 140.564 213.043 140.529 211.916 140.424C210.717 140.313 209.534 140.106 208.351 139.963C208.296 139.963 208.288 140.058 208.351 140.074C210.712 140.749 213.163 141.049 215.616 140.964C216.807 140.926 217.993 140.804 219.166 140.598C220.361 140.415 221.546 140.166 222.715 139.852C222.715 139.852 222.739 139.789 222.699 139.796Z" fill="#9A4A4D"/>
<path d="M239.19 129.101C239.194 129.072 239.194 129.043 239.19 129.014C239.158 127.968 238.806 126.956 238.182 126.116C237.857 125.659 237.496 125.229 237.102 124.83C236.807 124.452 236.446 124.129 236.038 123.877C235.14 123.493 234.179 123.276 233.203 123.234L230.408 123.091C229.869 123.091 228.543 122.734 228.154 123.218C228.051 123.366 228.009 123.548 228.034 123.726C228.154 125.941 230.694 126.108 232.393 126.346C232.819 126.386 233.241 126.458 233.656 126.561C234.363 126.775 235.164 127.355 234.712 128.149C234.264 128.864 233.634 129.448 232.886 129.84C232.081 130.247 231.231 130.559 230.353 130.769C229.138 131.086 227.177 131.483 226.963 132.984C226.927 133.144 226.931 133.31 226.972 133.469C227.014 133.628 227.092 133.774 227.201 133.897C227.472 134.107 227.812 134.206 228.154 134.175C228.726 134.183 229.299 134.159 229.869 134.104C229.765 134.138 229.666 134.186 229.575 134.246L229.098 134.493C228.777 134.678 228.487 134.914 228.241 135.191C228.012 135.428 227.862 135.731 227.812 136.057C227.791 136.173 227.808 136.292 227.86 136.398C227.919 136.499 228.001 136.586 228.098 136.652C228.921 137.079 229.852 137.253 230.774 137.152C230.569 137.204 230.372 137.282 230.186 137.383C229.928 137.536 229.727 137.771 229.614 138.05C229.558 138.191 229.528 138.342 229.527 138.494C229.521 138.614 229.553 138.732 229.619 138.832C229.685 138.932 229.78 139.008 229.892 139.05C230.144 139.164 230.412 139.236 230.686 139.264C231.01 139.305 231.336 139.327 231.663 139.328C232.299 139.35 232.937 139.321 233.569 139.241C234.552 139.181 235.513 138.924 236.395 138.486C236.453 138.445 236.523 138.425 236.594 138.431C236.768 138.471 236.594 138.653 236.594 138.725C236.503 138.901 236.434 139.088 236.387 139.28C236.26 139.7 236.26 140.147 236.387 140.567C236.457 140.774 236.583 140.958 236.751 141.098C236.919 141.239 237.123 141.329 237.34 141.361C237.975 141.416 238.134 140.519 238.38 140.058C238.674 139.439 238.968 138.812 239.238 138.185C239.828 136.976 240.051 135.621 239.881 134.286C239.781 133.904 239.719 133.513 239.698 133.119C239.698 132.841 239.809 132.579 239.849 132.325C239.938 131.81 239.863 131.279 239.635 130.808C239.462 130.528 239.318 130.23 239.206 129.919C239.17 129.648 239.164 129.374 239.19 129.101Z" fill="#B16668"/>
<path d="M238.205 129.538C238.037 129.967 237.824 130.376 237.57 130.761C237.389 131.1 237.159 131.41 236.887 131.682C236.338 132.254 235.679 132.71 234.95 133.024C233.407 133.547 231.808 133.891 230.186 134.048H229.869C230.928 134.193 232.005 134.139 233.045 133.889C233.928 133.796 234.792 133.571 235.609 133.222C236.316 132.855 236.942 132.35 237.451 131.737C237.885 131.074 238.157 130.318 238.245 129.53C238.269 129.522 238.221 129.483 238.205 129.538Z" fill="#9A4A4D"/>
<path d="M238.745 132.873C238.59 133.276 238.393 133.662 238.158 134.024C237.98 134.34 237.761 134.632 237.507 134.89C236.993 135.428 236.374 135.856 235.688 136.144C234.241 136.638 232.741 136.961 231.218 137.105H230.925C231.924 137.238 232.939 137.185 233.918 136.946C234.738 136.858 235.541 136.649 236.3 136.327C236.965 135.982 237.554 135.507 238.031 134.929C238.435 134.306 238.688 133.596 238.769 132.857C238.769 132.857 238.761 132.817 238.745 132.873Z" fill="#9A4A4D"/>
<path d="M243.43 133.27C243.426 133.241 243.426 133.212 243.43 133.183C243.656 132.159 243.559 131.091 243.152 130.126C242.946 129.604 242.699 129.1 242.414 128.617C241.898 127.736 241.207 126.958 240.627 126.108C240.048 125.259 239.285 124.218 238.579 123.297C238.483 123.138 238.334 123.017 238.158 122.956C238.03 122.948 237.903 122.975 237.79 123.034C237.677 123.093 237.582 123.181 237.515 123.289C237.195 123.746 236.988 124.272 236.91 124.824C236.833 125.376 236.888 125.939 237.07 126.465C237.45 127.511 237.985 128.493 238.658 129.379C239.023 129.927 239.666 130.88 239.055 131.499C238.505 131.977 237.845 132.31 237.134 132.468C236.254 132.673 235.353 132.771 234.45 132.762C233.187 132.762 231.21 132.706 230.623 134.104C230.55 134.25 230.512 134.412 230.512 134.576C230.512 134.74 230.55 134.902 230.623 135.048C230.838 135.313 231.144 135.488 231.48 135.541C231.989 135.676 232.648 135.811 233.164 135.89C233.055 135.892 232.947 135.913 232.846 135.954L232.33 136.081C231.974 136.183 231.636 136.341 231.33 136.549C231.052 136.727 230.833 136.984 230.702 137.287C230.658 137.398 230.644 137.519 230.663 137.637C230.698 137.749 230.757 137.852 230.837 137.939C231.536 138.547 232.397 138.939 233.314 139.066C233.105 139.064 232.897 139.091 232.695 139.145C232.404 139.234 232.151 139.415 231.973 139.662C231.884 139.786 231.819 139.926 231.782 140.074C231.77 140.143 231.77 140.213 231.782 140.281C231.81 140.442 231.894 140.589 232.02 140.694C232.24 140.866 232.487 141 232.751 141.091C233.054 141.21 233.364 141.311 233.68 141.392C234.295 141.561 234.921 141.686 235.554 141.766C236.522 141.934 237.514 141.915 238.475 141.71C238.544 141.683 238.621 141.683 238.69 141.71C238.849 141.789 238.65 141.932 238.595 141.996C238.465 142.145 238.356 142.311 238.269 142.488C238.047 142.867 237.944 143.304 237.975 143.743C237.992 143.96 238.07 144.168 238.199 144.343C238.328 144.519 238.503 144.654 238.706 144.735C239.317 144.942 239.706 144.116 240.032 143.719C240.468 143.187 240.897 142.655 241.318 142.131C242.175 141.097 242.713 139.836 242.866 138.502C242.86 138.105 242.895 137.709 242.969 137.319C243.068 137.064 243.182 136.815 243.311 136.573C243.519 136.093 243.572 135.56 243.462 135.048C243.364 134.733 243.297 134.408 243.263 134.08C243.278 133.803 243.334 133.53 243.43 133.27Z" fill="#FFA8A7"/>
<path d="M243.168 130.126C241.921 127.617 239.936 125.576 238.34 123.289C238.213 123.147 238.11 123.107 237.983 123.162C237.022 123.837 236.951 125.394 237.284 126.465C237.943 129.022 241.763 131.372 237.142 132.452C239.587 131.61 239.722 130.864 238.166 128.903C237.038 127.355 236.046 125.084 237.277 123.297C237.467 123.012 237.872 122.63 238.293 122.797C238.421 122.849 238.536 122.931 238.626 123.035C239.277 123.917 239.897 124.79 240.524 125.687C241.598 127.043 242.488 128.535 243.168 130.126Z" fill="#F28F8F"/>
<path d="M242.366 133.453C242.096 133.828 241.79 134.177 241.453 134.493C241.194 134.774 240.898 135.017 240.572 135.215C239.9 135.642 239.149 135.928 238.364 136.057C236.744 136.196 235.114 136.148 233.505 135.914L233.187 135.874C234.184 136.265 235.245 136.47 236.316 136.478C237.195 136.605 238.088 136.605 238.968 136.478C239.744 136.286 240.476 135.944 241.119 135.469C241.694 134.93 242.134 134.264 242.406 133.524C242.406 133.524 242.437 133.397 242.366 133.453Z" fill="#F28F8F"/>
<path d="M242.088 136.787C241.842 137.143 241.557 137.471 241.238 137.764C240.996 138.032 240.715 138.262 240.405 138.447C239.779 138.851 239.076 139.121 238.34 139.241C236.819 139.375 235.286 139.329 233.775 139.106H233.473C234.41 139.472 235.406 139.663 236.411 139.669C237.238 139.792 238.078 139.792 238.904 139.669C239.632 139.494 240.317 139.175 240.921 138.733C241.463 138.225 241.876 137.597 242.128 136.898C242.152 136.787 242.12 136.787 242.088 136.787Z" fill="#F28F8F"/>
<path d="M189.605 75.4436C184.579 76.2376 179.8 78.5084 176.901 86.3689C174.003 94.2294 169.025 128.268 169.025 128.268C171.812 129.356 175.591 129.284 179.672 125.274C183.754 121.265 189.01 109.696 189.01 109.696C189.01 109.696 194.29 97.2863 194.314 90.0768C194.322 83.0818 192.805 78.691 189.605 75.4436Z" fill="#F28F8F"/>
<path d="M182.547 71.8864C181.475 70.4956 180.094 69.373 178.513 68.6073C176.489 67.4401 171.621 63.0493 170.883 62.4697C170.145 61.8901 168.715 59.2303 167.707 57.5311C166.699 55.832 165.857 54.7521 164.134 55.7605C164.094 55.6573 163.983 55.3873 163.729 54.7839C163.126 53.3785 162.506 53.0292 161.792 53.0213C161.453 53.0355 161.123 53.125 160.823 53.2833C160.592 52.7781 160.22 52.3506 159.751 52.0526C158.894 51.5524 158.251 51.727 158.02 52.1399C157.79 52.5528 158.108 53.4897 158.671 55.7129C159.032 57.3955 159.518 59.049 160.124 60.6594C159.969 61.388 160.038 62.1467 160.323 62.835C161.787 65.4234 163.482 67.8736 165.389 70.1556C166.294 71.1957 171.471 75.7135 172.947 77.5238C174.694 79.4849 173.845 83.0817 172.296 87.5916C170.708 92.2443 169.12 97.0797 167.532 101.232C166.215 104.661 165.185 108.193 164.452 111.792C163.658 115.611 164.491 120.987 166.651 126.037C168.517 130.38 174.099 128.196 177.965 123.599C181.832 119.002 183.301 115.175 183.897 111.356C184.662 106.484 185.02 101.558 184.968 96.6272C185.016 86.6308 184.968 83.5819 184.873 81.6049C184.603 77.8334 184.325 74.4272 182.547 71.8864Z" fill="#FFA8A7"/>
<path d="M165.349 70.1636C166.389 71.2196 167.516 72.1803 168.612 73.1807C169.708 74.1812 170.788 75.1816 171.852 76.2217C172.396 76.7368 172.895 77.2973 173.344 77.897C173.735 78.5528 173.959 79.2944 173.995 80.0567C174.031 81.5562 173.827 83.0517 173.392 84.4872C172.995 85.9163 172.503 87.3217 172.018 88.7191L170.573 92.9114C169.597 95.7062 168.604 98.4693 167.485 101.24C168.493 98.4614 169.414 95.6824 170.351 92.8399L171.756 88.6238C172.233 87.2264 172.717 85.829 173.098 84.4078C173.534 83.0073 173.745 81.5469 173.726 80.0805C173.696 79.3584 173.489 78.6548 173.122 78.032C172.685 77.4465 172.204 76.8944 171.685 76.3805C169.621 74.2685 167.389 72.3073 165.349 70.1636Z" fill="#B16668"/>
<path d="M164.086 55.8003C164.005 56.064 164.03 56.3494 164.158 56.5943C164.269 56.8563 164.412 57.1104 164.555 57.3883L165.349 58.9763C165.865 60.0164 166.357 61.0644 166.842 62.1522C167.08 62.6683 167.302 63.24 167.556 63.7402C167.862 64.2207 168.193 64.6845 168.549 65.1297L170.708 67.8689C169.815 67.1118 168.972 66.2976 168.183 65.4314C167.779 64.9964 167.408 64.5319 167.072 64.0419C166.918 63.787 166.783 63.5217 166.667 63.2479L166.302 62.4539C165.825 61.39 165.357 60.3181 164.92 59.278C164.69 58.7381 164.483 58.1902 164.285 57.6503C164.19 57.3724 164.079 57.0945 164.007 56.8087C163.934 56.6475 163.903 56.4706 163.917 56.2943C163.931 56.118 163.989 55.948 164.086 55.8003Z" fill="#F28F8F"/>
<path d="M160.783 53.2913C160.466 53.5136 160.537 53.8947 160.664 54.1964C160.791 54.4981 160.934 54.8316 161.077 55.1492C161.355 55.7923 161.617 56.4434 161.871 57.0865C162.364 58.3966 162.792 59.7226 163.269 61.0088C163.829 62.2726 164.553 63.4577 165.42 64.5342C166.214 65.6537 167.12 66.7335 167.953 67.8451C166.935 66.8875 165.975 65.8693 165.079 64.7962C164.111 63.7575 163.324 62.563 162.753 61.2629C162.236 59.9449 161.847 58.6189 161.435 57.293C161.244 56.626 161.038 55.967 160.815 55.308C160.712 54.9745 160.609 54.641 160.529 54.2917C160.488 54.1149 160.475 53.9327 160.49 53.7518C160.496 53.6564 160.526 53.5641 160.577 53.4836C160.628 53.403 160.7 53.3368 160.783 53.2913Z" fill="#F28F8F"/>
<path d="M160.085 60.6675C160.474 61.3106 160.839 61.9537 161.236 62.5651C161.632 63.1768 162.058 63.7678 162.514 64.3357C163.47 65.4687 164.366 66.6507 165.198 67.8769C164.62 67.4081 164.068 66.9071 163.547 66.3763C163.013 65.851 162.512 65.2942 162.046 64.7089C161.572 64.1161 161.162 63.4747 160.823 62.7954C160.49 62.1193 160.242 61.4045 160.085 60.6675Z" fill="#F28F8F"/>
<path d="M184.921 96.6352C184.921 92.4508 184.921 88.2586 184.833 84.0663C184.786 81.9781 184.659 79.882 184.413 77.8097C184.243 75.7264 183.57 73.7154 182.451 71.95H182.602L182.515 72.0056L182.451 71.9183C181.84 71.0602 181.072 70.3249 180.189 69.7507C179.323 69.1393 178.354 68.6867 177.481 68.0515C175.742 66.7891 174.123 65.4075 172.503 64.026L171.288 62.9859C171.082 62.8033 170.891 62.6445 170.685 62.4539C170.491 62.2558 170.314 62.0435 170.153 61.8187C169.533 60.9374 169.001 60.0084 168.461 59.0953C167.947 58.1671 167.385 57.2661 166.778 56.3958C166.492 55.9776 166.076 55.6652 165.595 55.5065C165.094 55.4334 164.583 55.5525 164.166 55.84L164.047 55.9035L163.991 55.7765C163.738 55.0179 163.374 54.3009 162.911 53.6486C162.795 53.5006 162.649 53.3774 162.484 53.286C162.32 53.1947 162.138 53.1371 161.951 53.1166C161.565 53.0811 161.178 53.1613 160.839 53.3468L160.736 53.3945L160.688 53.2913C160.483 52.8357 160.156 52.4455 159.743 52.1638C159.553 52.0147 159.33 51.9126 159.093 51.8657C158.855 51.8188 158.611 51.8285 158.378 51.8938C158.274 51.9373 158.184 52.0084 158.119 52.0995C158.053 52.1905 158.013 52.2979 158.005 52.4099C157.993 52.6582 158.017 52.9068 158.076 53.1483C158.187 53.6486 158.338 54.1488 158.465 54.649L159.259 57.6503C159.497 58.6509 159.807 59.6327 160.188 60.588C160.002 61.487 160.155 62.4229 160.617 63.2161C161.069 64.0101 161.57 64.8041 162.086 65.5981C163.103 67.1492 164.2 68.6466 165.373 70.0841C164.18 68.6617 163.059 67.1804 162.014 65.6457C161.49 64.8518 160.974 64.1054 160.506 63.2638C160.009 62.4428 159.841 61.464 160.037 60.5245V60.588C159.642 59.624 159.321 58.6313 159.076 57.6185L158.282 54.6172C158.147 54.117 158.005 53.6168 157.885 53.1086C157.819 52.8495 157.792 52.5818 157.806 52.3147C157.817 52.1684 157.867 52.0279 157.953 51.9088C158.038 51.7897 158.155 51.6966 158.29 51.6398C158.558 51.5538 158.842 51.5341 159.119 51.5826C159.395 51.631 159.656 51.746 159.878 51.9177C160.327 52.2217 160.682 52.6453 160.903 53.1404L160.752 53.0848C161.128 52.873 161.56 52.7789 161.99 52.8149C162.426 52.8659 162.825 53.0853 163.102 53.4262C163.374 53.7444 163.593 54.1034 163.753 54.4902L164.229 55.6176L164.055 55.5541C164.521 55.2415 165.086 55.1115 165.643 55.1889C166.214 55.375 166.699 55.7613 167.008 56.2767C167.627 57.1511 168.2 58.0575 168.723 58.9921C169.271 59.9052 169.803 60.8262 170.415 61.6837C170.564 61.896 170.732 62.0952 170.915 62.2792C171.089 62.446 171.32 62.6206 171.51 62.7953L172.717 63.8434C174.305 65.2329 175.941 66.6224 177.656 67.8769C178.505 68.5041 179.474 68.9646 180.355 69.5839C181.254 70.1879 182.037 70.9491 182.666 71.8309L182.515 71.7912L182.602 71.7356L182.666 71.823C183.789 73.6241 184.462 75.6695 184.627 77.7858C184.865 79.874 184.984 81.9702 185.016 84.0663C185.048 88.2586 184.96 92.4508 184.921 96.6352Z" fill="#B16668"/>
<path d="M117.987 61.8982C117.987 61.8982 111.366 58.3252 109.508 62.3587C108.309 64.9551 111.096 68.3613 115.193 68.8377C118.079 69.1059 120.984 69.1059 123.871 68.8377C123.871 68.8377 125.896 61.4536 124.879 57.6583C123.863 53.863 120.687 54.2362 118.956 56.3879C117.336 58.4285 117.987 61.8982 117.987 61.8982Z" fill="#FF4444"/>
<path opacity="0.5" d="M117.987 61.8982C117.987 61.8982 111.366 58.3252 109.508 62.3587C108.309 64.9551 111.096 68.3613 115.193 68.8377C118.079 69.1059 120.984 69.1059 123.871 68.8377C123.871 68.8377 125.896 61.4536 124.879 57.6583C123.863 53.863 120.687 54.2362 118.956 56.3879C117.336 58.4285 117.987 61.8982 117.987 61.8982Z" fill="white"/>
<path d="M114.383 34.6485C114.383 34.6485 112.541 32.862 110.659 33.5051C108.777 34.1482 108.714 35.8315 110.659 37.2845C112.414 38.6025 116.725 38.2929 116.725 38.2929C116.725 38.2929 118.575 34.9184 118.186 32.7349C117.797 30.5515 116.034 29.4637 114.796 30.9088C114.392 31.4352 114.141 32.0619 114.068 32.7211C113.995 33.3802 114.104 34.0467 114.383 34.6485Z" fill="#FF4444"/>
<path d="M259.572 93.9119C259.572 93.9119 260.366 91.4744 258.976 90.0611C257.587 88.6478 256.03 89.3385 255.57 91.7126C255.157 93.8643 257.325 97.604 257.325 97.604C257.325 97.604 261.168 97.7866 262.97 96.4686C264.772 95.1505 264.963 93.1021 263.121 92.6257C262.468 92.4947 261.792 92.5454 261.166 92.7722C260.54 92.999 259.989 93.3932 259.572 93.9119Z" fill="#FF4444"/>
<path opacity="0.5" d="M259.572 93.9119C259.572 93.9119 260.366 91.4744 258.976 90.0611C257.587 88.6478 256.03 89.3385 255.57 91.7126C255.157 93.8643 257.325 97.604 257.325 97.604C257.325 97.604 261.168 97.7866 262.97 96.4686C264.772 95.1505 264.963 93.1021 263.121 92.6257C262.468 92.4947 261.792 92.5454 261.166 92.7722C260.54 92.999 259.989 93.3932 259.572 93.9119Z" fill="white"/>
<path d="M121.457 99.1601C121.457 99.1601 119.917 96.7781 117.725 97.0004C115.534 97.2227 115.058 99.033 116.781 101.082C118.368 102.932 123.077 103.662 123.077 103.662C123.077 103.662 125.896 100.486 126.023 98.0167C126.15 95.5474 124.506 93.9595 122.847 95.214C122.275 95.6806 121.843 96.2958 121.598 96.9919C121.353 97.688 121.304 98.4382 121.457 99.1601Z" fill="#FF4444"/>
<path d="M251.171 40.7622C251.171 40.7622 252.021 35.8236 248.892 33.4734C245.764 31.1232 242.969 32.8859 242.771 37.626C242.596 41.9056 247.892 48.5513 247.892 48.5513C247.892 48.5513 255.395 47.8287 258.508 44.7878C261.62 41.7468 261.39 37.7133 257.714 37.2925C253.386 36.8161 251.171 40.7622 251.171 40.7622Z" fill="#FF4444"/>
<path d="M195.838 9.0423C195.838 9.0423 195.044 3.86549 191.034 3.73845C187.612 3.62729 185.175 6.63652 186.834 11.202C188.335 15.3069 195.219 20.0708 195.219 20.0708C195.219 20.0708 203.413 15.7356 205.12 11.6228C206.827 7.5099 204.389 3.03974 200.729 4.11957C199.554 4.44012 198.484 5.06351 197.626 5.92741C196.767 6.7913 196.151 7.86541 195.838 9.0423Z" fill="#FF4444"/>
<path opacity="0.5" d="M195.838 9.0423C195.838 9.0423 195.044 3.86549 191.034 3.73845C187.612 3.62729 185.175 6.63652 186.834 11.202C188.335 15.3069 195.219 20.0708 195.219 20.0708C195.219 20.0708 203.413 15.7356 205.12 11.6228C206.827 7.5099 204.389 3.03974 200.729 4.11957C199.554 4.44012 198.484 5.06351 197.626 5.92741C196.767 6.7913 196.151 7.86541 195.838 9.0423Z" fill="white"/>
<path d="M135.876 35.5377C134.756 33.1558 130.12 32.3618 129.762 35.7283C129.381 39.2298 135.13 40.9607 137.583 41.4291C137.924 41.5006 138.163 41.0877 137.758 40.9766C135.527 40.3811 133.034 39.7221 131.406 37.9594C130.39 36.8716 129.818 35.0296 131.541 34.1324C133.041 33.3384 134.717 34.5611 135.662 35.6171C135.749 35.7203 135.963 35.7124 135.876 35.5377Z" fill="#455A64"/>
<path d="M135.939 35.7759C135.983 35.2125 136.138 34.6633 136.396 34.1603C136.653 33.6574 137.008 33.2106 137.44 32.8461C139.139 31.3375 141.577 32.4014 141.331 34.712C141.045 37.3162 138.861 39.1345 137.424 41.1115C137.194 41.4291 137.813 41.572 138.012 41.3338C139.6 39.4362 144.054 34.8946 141.188 32.2585C140.648 31.7867 139.955 31.5266 139.239 31.5266C138.522 31.5266 137.829 31.7867 137.289 32.2585C136.376 32.9652 135.193 34.5293 135.654 35.7362C135.701 35.8474 135.963 35.9585 135.963 35.7362L135.939 35.7759Z" fill="#455A64"/>
<path d="M249.218 65.8841C250.012 63.3909 247.249 59.6036 244.66 61.795C242.072 63.9864 244.93 69.2823 246.376 71.3229C246.582 71.6087 247.035 71.4737 246.82 71.1165C245.621 69.1394 244.271 66.948 244.311 64.5422C244.311 63.0575 245.185 61.3266 247.05 61.8665C248.638 62.3429 249.043 64.3596 249.004 65.7888C249.004 65.9238 249.154 66.0667 249.218 65.8841Z" fill="#455A64"/>
<path d="M249.091 66.1223C249.512 65.7441 250.004 65.4538 250.538 65.2683C251.073 65.0829 251.639 65.0061 252.203 65.0424C254.482 65.1218 255.498 67.5753 253.728 69.0759C251.727 70.7592 248.892 70.5607 246.487 71.0053C246.098 71.0768 246.447 71.6087 246.757 71.577C249.218 71.2991 255.57 71.0847 255.3 67.1862C255.237 66.4713 254.914 65.8042 254.394 65.31C253.874 64.8159 253.191 64.5287 252.473 64.5025C251.33 64.3755 249.393 64.701 248.9 65.8841C248.853 65.9952 248.964 66.2572 249.091 66.1223Z" fill="#455A64"/>
</svg>
