<svg width="388" height="442" viewBox="0 0 388 442" fill="none" xmlns="http://www.w3.org/2000/svg">
<path opacity="0.1" d="M305.451 258.095C305.921 256.921 305.965 255.619 305.575 254.416C305.186 253.212 304.388 252.183 303.32 251.506C302.252 250.829 300.98 250.547 299.726 250.709C298.471 250.871 297.313 251.466 296.452 252.392C296.46 251.128 296.027 249.9 295.226 248.922C294.426 247.943 293.308 247.276 292.067 247.034C290.826 246.793 289.54 246.993 288.431 247.6C287.322 248.206 286.46 249.182 285.994 250.357C284.703 253.605 285.906 257.205 287.52 260.139C287.843 260.717 290.934 267.545 290.318 267.965C294.984 264.767 303.025 264.199 305.451 258.095Z" stroke="black" stroke-miterlimit="10"/>
<path opacity="0.1" d="M297.743 323.217C298.212 322.043 298.256 320.741 297.867 319.538C297.478 318.334 296.68 317.305 295.611 316.628C294.543 315.951 293.272 315.669 292.017 315.831C290.763 315.993 289.605 316.588 288.743 317.514C288.752 316.25 288.318 315.022 287.518 314.044C286.717 313.066 285.6 312.398 284.359 312.156C283.118 311.915 281.832 312.115 280.722 312.722C279.613 313.328 278.751 314.304 278.286 315.479C276.994 318.717 278.207 322.327 279.821 325.262C280.144 325.839 283.226 332.657 282.619 333.088C287.276 329.889 295.317 329.312 297.743 323.217Z" stroke="black" stroke-miterlimit="10"/>
<path opacity="0.1" d="M55.763 334.878C55.1448 333.788 54.1691 332.946 53.001 332.494C51.8329 332.042 50.5444 332.007 49.3539 332.396C48.1633 332.786 47.1439 333.574 46.4685 334.629C45.7931 335.684 45.5031 336.94 45.6478 338.184C44.6786 337.372 43.4559 336.925 42.1915 336.919C40.9271 336.914 39.7005 337.35 38.7241 338.154C37.7477 338.957 37.083 340.077 36.8449 341.318C36.6069 342.56 36.8106 343.846 37.4208 344.954C39.1033 348.016 42.6446 349.375 45.9022 349.982C46.5576 350.099 53.7869 352.066 53.7282 352.799C54.2369 347.194 58.9129 340.64 55.763 334.878Z" stroke="black" stroke-miterlimit="10"/>
<path opacity="0.1" d="M110.212 298.555C110.682 297.381 110.726 296.079 110.336 294.876C109.947 293.673 109.149 292.643 108.081 291.966C107.012 291.289 105.741 291.007 104.487 291.169C103.232 291.331 102.074 291.926 101.212 292.852C101.224 291.587 100.792 290.358 99.992 289.378C99.1921 288.398 98.0746 287.728 96.8331 287.486C95.5915 287.243 94.3042 287.442 93.1941 288.049C92.084 288.656 91.2211 289.632 90.755 290.808C89.4637 294.055 90.6669 297.655 92.2811 300.59C92.6039 301.167 95.6951 307.986 95.0886 308.416C99.7647 305.227 107.806 304.65 110.212 298.555Z" stroke="black" stroke-miterlimit="10"/>
<path opacity="0.1" d="M365.663 291.424C364.497 291.059 363.418 290.457 362.496 289.656C361.573 288.855 360.826 287.871 360.302 286.767C360.016 286.653 359.711 286.596 359.403 286.6C359.095 286.604 358.791 286.669 358.509 286.791C358.226 286.913 357.97 287.089 357.756 287.31C357.541 287.531 357.373 287.792 357.26 288.078C357.054 288.785 357.007 289.529 357.122 290.256C357.237 290.983 357.511 291.676 357.925 292.285C358.062 292.539 359.392 295.484 359.128 295.66C361.143 294.3 364.616 294.055 365.663 291.424Z" stroke="black" stroke-miterlimit="10"/>
<path opacity="0.1" d="M117.931 74.4872C118.4 73.3127 118.444 72.0111 118.055 70.8078C117.665 69.6045 116.867 68.5752 115.799 67.8982C114.731 67.2212 113.459 66.9392 112.205 67.101C110.951 67.2627 109.792 67.8581 108.931 68.784C108.94 67.5198 108.506 66.2923 107.706 65.314C106.905 64.3357 105.788 63.668 104.547 63.4266C103.306 63.1851 102.019 63.3851 100.91 63.9918C99.8013 64.5986 98.9392 65.574 98.4734 66.7492C97.1821 69.997 98.3951 73.5969 100.009 76.5317C100.332 77.1089 103.414 83.9371 102.807 84.3577C107.473 81.2077 115.505 80.5914 117.931 74.4872Z" stroke="black" stroke-miterlimit="10"/>
<path opacity="0.1" d="M332.676 48.7298C333.425 46.8888 333.503 44.8431 332.896 42.9505C332.289 41.0579 331.036 39.439 329.356 38.3769C327.676 37.3148 325.676 36.8772 323.706 37.1407C321.736 37.4041 319.921 38.3518 318.58 39.818C318.595 37.8413 317.919 35.9214 316.668 34.3908C315.417 32.8601 313.671 31.8151 311.73 31.4366C309.79 31.058 307.779 31.3699 306.044 32.3182C304.31 33.2664 302.962 34.7913 302.233 36.6289C300.218 41.706 302.106 47.3309 304.63 51.8602C305.129 52.77 309.951 63.4232 309.003 64.0688C316.33 59.1482 328.89 58.258 332.676 48.7298Z" stroke="black" stroke-miterlimit="10"/>
<path opacity="0.1" d="M297.107 13.0433C297.427 12.2357 297.455 11.3418 297.185 10.5159C296.916 9.69005 296.367 8.98414 295.633 8.52013C294.899 8.05612 294.025 7.86315 293.164 7.97456C292.302 8.08597 291.507 8.49475 290.915 9.1303C290.92 8.26174 290.621 7.41875 290.071 6.74694C289.52 6.07513 288.752 5.61669 287.9 5.45081C287.047 5.28493 286.163 5.42203 285.401 5.83843C284.639 6.25483 284.046 6.92437 283.725 7.73141C282.834 9.96182 283.666 12.4368 284.771 14.4324C284.996 14.8335 287.119 19.5291 286.728 19.8128C289.907 17.6215 295.434 17.24 297.107 13.0433Z" stroke="black" stroke-miterlimit="10"/>
<path opacity="0.1" d="M378.439 195.986C379.316 193.765 379.391 191.307 378.65 189.037C377.909 186.767 376.399 184.827 374.38 183.551C372.361 182.276 369.961 181.745 367.592 182.051C365.224 182.356 363.036 183.479 361.407 185.225C361.432 182.831 360.618 180.504 359.108 178.647C357.597 176.79 355.485 175.519 353.137 175.054C350.788 174.59 348.351 174.961 346.248 176.104C344.144 177.247 342.506 179.089 341.617 181.312C339.172 187.455 341.461 194.274 344.552 199.752C345.169 200.858 351.009 213.77 349.854 214.543C358.688 208.605 373.851 207.529 378.439 195.986Z" stroke="black" stroke-miterlimit="10"/>
<path opacity="0.1" d="M84.4452 205.26C82.868 203.464 80.7135 202.275 78.3534 201.898C75.9933 201.521 73.5757 201.98 71.5176 203.195C69.4595 204.41 67.8901 206.305 67.0802 208.554C66.2703 210.803 66.2707 213.263 67.0813 215.512C64.9585 214.399 62.513 214.065 60.1698 214.568C57.8265 215.072 55.7336 216.38 54.2546 218.266C52.7757 220.151 52.0042 222.496 52.0742 224.892C52.1442 227.287 53.0513 229.583 54.6379 231.379C58.9911 236.348 66.103 237.424 72.3736 237.199C73.6355 237.199 87.7908 237.826 87.9571 239.205C86.6658 228.64 92.6038 214.602 84.4452 205.26Z" stroke="black" stroke-miterlimit="10"/>
<path d="M201.102 441.986C227.921 441.986 249.662 435.728 249.662 428.007C249.662 420.287 227.921 414.028 201.102 414.028C174.282 414.028 152.541 420.287 152.541 428.007C152.541 435.728 174.282 441.986 201.102 441.986Z" fill="#FF4444"/>
<path opacity="0.5" d="M201.102 441.986C227.921 441.986 249.662 435.728 249.662 428.007C249.662 420.287 227.921 414.028 201.102 414.028C174.282 414.028 152.541 420.287 152.541 428.007C152.541 435.728 174.282 441.986 201.102 441.986Z" fill="white"/>
<path d="M186.085 302.527C186.085 302.527 178.475 311.644 173.153 309.375C167.831 307.105 170.492 272.113 175.051 271.35C179.609 270.587 196.347 281.994 196.347 289.986C196.347 297.978 187.22 304.053 187.22 304.053L186.085 302.527Z" fill="#263238" stroke="#263238" stroke-linecap="round" stroke-linejoin="round"/>
<path d="M216.509 316.262V255.522H186.183V316.262C172.136 319.947 159.911 328.623 151.795 340.667C143.679 352.71 140.228 367.298 142.086 381.702C143.944 396.105 150.984 409.339 161.891 418.929C172.797 428.519 186.823 433.809 201.346 433.809C215.869 433.809 229.895 428.519 240.802 418.929C251.708 409.339 258.749 396.105 260.607 381.702C262.465 367.298 259.013 352.71 250.897 340.667C242.781 328.623 230.557 319.947 216.509 316.262Z" fill="white" stroke="#263238" stroke-linecap="round" stroke-linejoin="round"/>
<path d="M216.509 267.457V255.522H186.183V265.745C189.451 269.306 195.437 271.702 202.305 271.702C207.369 271.823 212.341 270.336 216.509 267.457Z" fill="#263238" stroke="#263238" stroke-linecap="round" stroke-linejoin="round"/>
<path d="M202.276 269.599C212.643 269.599 221.048 264.155 221.048 257.44C221.048 250.724 212.643 245.28 202.276 245.28C191.908 245.28 183.503 250.724 183.503 257.44C183.503 264.155 191.908 269.599 202.276 269.599Z" fill="white" stroke="#263238" stroke-linecap="round" stroke-linejoin="round"/>
<path d="M202.275 260.071C207.143 260.071 211.089 257.956 211.089 255.346C211.089 252.737 207.143 250.621 202.275 250.621C197.408 250.621 193.461 252.737 193.461 255.346C193.461 257.956 197.408 260.071 202.275 260.071Z" fill="white" stroke="#263238" stroke-linecap="round" stroke-linejoin="round"/>
<path d="M148.041 363.149C146.215 371.154 146.215 379.468 148.043 387.472C149.87 395.477 153.477 402.967 158.597 409.386C163.716 415.805 170.216 420.988 177.614 424.55C185.011 428.113 193.116 429.963 201.327 429.963C209.537 429.963 217.642 428.113 225.04 424.55C232.437 420.988 238.937 415.805 244.056 409.386C249.176 402.967 252.783 395.477 254.611 387.472C256.438 379.468 256.438 371.154 254.612 363.149H148.041Z" fill="#FF4444" stroke="#263238" stroke-linecap="round" stroke-linejoin="round"/>
<path d="M201.454 376.209C230.812 376.209 254.612 370.432 254.612 363.306C254.612 356.18 230.812 350.403 201.454 350.403C172.095 350.403 148.296 356.18 148.296 363.306C148.296 370.432 172.095 376.209 201.454 376.209Z" fill="#FF4444" stroke="#263238" stroke-linecap="round" stroke-linejoin="round"/>
<path d="M190.947 290.964V315.763" stroke="#263238" stroke-linecap="round" stroke-linejoin="round"/>
<path d="M190.947 272.368V283.882" stroke="#263238" stroke-linecap="round" stroke-linejoin="round"/>
<path d="M169.025 338.086C163.63 342.783 159.319 348.597 156.393 355.124C153.466 361.651 151.993 368.736 152.074 375.889C152.156 383.042 153.791 390.092 156.867 396.55C159.942 403.009 164.384 408.722 169.886 413.294" stroke="#263238" stroke-linecap="round" stroke-linejoin="round"/>
<path d="M189.451 327.424C185.169 328.494 181.052 330.139 177.213 332.315" stroke="#263238" stroke-linecap="round" stroke-linejoin="round"/>
<path d="M230.586 352.369L175.638 367.542C175.259 367.619 174.865 367.55 174.535 367.348C174.205 367.146 173.965 366.826 173.862 366.453C173.758 366.081 173.801 365.683 173.98 365.34C174.159 364.997 174.461 364.735 174.826 364.607L229.774 349.434C230.153 349.357 230.547 349.426 230.877 349.628C231.207 349.83 231.447 350.15 231.55 350.522C231.653 350.895 231.611 351.293 231.432 351.636C231.253 351.979 230.951 352.241 230.586 352.369Z" fill="#263238"/>
<path d="M232.181 345.198L232.044 345.502L229.197 350.461L240.907 347.223L243.959 341.951L232.181 345.198Z" fill="#263238"/>
<path d="M246.561 351.381L241.298 348.563L229.559 351.792C231.412 352.535 233.174 353.486 234.812 354.629L246.561 351.381Z" fill="#263238"/>
<path d="M166.736 368.412L177.36 360.214L175.873 365.898L180.059 369.997L166.736 368.412Z" fill="#263238"/>
<path d="M227.602 363.717C228.221 360.992 227.868 358.137 226.605 355.645C225.342 353.153 223.248 351.18 220.684 350.069C218.121 348.957 215.25 348.776 212.567 349.557C209.885 350.338 207.559 352.031 205.993 354.345C205.578 351.583 204.21 349.052 202.127 347.191C200.045 345.33 197.377 344.255 194.585 344.151C191.794 344.048 189.054 344.923 186.84 346.626C184.625 348.328 183.074 350.75 182.456 353.474C180.754 361.007 184.618 368.461 189.138 374.243C190.047 375.397 199.126 389.239 197.942 390.345C207.059 381.873 224.404 377.872 227.602 363.717Z" fill="#263238" stroke="#263238" stroke-linecap="round" stroke-linejoin="round"/>
<path d="M158.489 379.691L175.423 376.013L175.833 377.901L160.612 381.198L161.659 386.04L159.947 386.412L158.489 379.691Z" fill="#263238"/>
<path d="M172.996 384.299C175.344 383.076 177.467 383.448 178.7 385.796C179.932 388.144 179.022 390.12 176.675 391.342L168.731 395.49C166.403 396.703 164.261 396.341 163.018 393.974C161.776 391.607 162.725 389.66 165.053 388.447L172.996 384.299ZM165.845 390.168C164.437 390.902 163.889 391.92 164.574 393.152C165.258 394.385 166.344 394.551 167.743 393.817L175.872 389.582C177.252 388.858 177.829 387.85 177.134 386.598C176.44 385.346 175.354 385.209 173.965 385.933L165.845 390.168Z" fill="#263238"/>
<path d="M181.351 390.413L172.546 402.974L185.264 394.434L186.506 395.705L171.832 405.488L169.876 403.453L179.991 388.995L181.351 390.413Z" fill="#263238"/>
<path d="M187.964 405.087L187.113 406.593L183.425 404.519L180.392 409.89L184.921 412.443L184.061 413.969L177.849 410.467L186.359 395.373L192.571 398.875L191.71 400.401L187.181 397.848L184.246 403.003L187.964 405.087Z" fill="#263238"/>
<path d="M199.311 400.352C202.011 400.704 202.96 402.446 202.618 405.058L202.354 407.112C202.002 409.841 200.534 411.103 197.805 410.741L196.113 410.526L195.232 417.305L193.276 417.051L195.516 399.863L199.311 400.352ZM198.03 409.029C199.458 409.215 200.231 408.638 200.446 406.994L200.74 404.705C200.945 403.14 200.485 402.279 199.086 402.093L197.247 401.859L196.338 408.804L198.03 409.029Z" fill="#263238"/>
<path d="M203.44 405.009C203.048 402.387 204.095 400.509 206.727 400.117C209.358 399.726 210.913 401.233 211.305 403.854L212.606 412.727C212.987 415.319 211.941 417.227 209.29 417.618C206.638 418.01 205.122 416.474 204.741 413.881L203.44 405.009ZM206.638 413.695C206.873 415.27 207.666 416.082 209.035 415.877C210.405 415.671 210.992 414.674 210.708 413.099L209.378 404.03C209.153 402.494 208.399 401.653 206.981 401.859C205.562 402.064 205.103 403.052 205.308 404.617L206.638 413.695Z" fill="#263238"/>
<path d="M220.148 414.39L213.76 400.186L210.825 401.497L210.101 399.892L217.693 396.478L218.417 398.083L215.482 399.393L221.87 413.598L220.148 414.39Z" fill="#263238"/>
<path d="M219.209 395.06L229.197 409.235L227.602 410.34L217.624 396.204L219.209 395.06Z" fill="#263238"/>
<path d="M222.848 397.809C220.892 395.989 220.588 393.896 222.408 391.939C224.227 389.983 226.399 390.217 228.277 392.047L234.783 398.21C236.69 400.019 237.042 402.123 235.203 404.079C233.364 406.036 231.222 405.762 229.334 403.962L222.848 397.809ZM230.742 402.7C231.887 403.795 233.012 403.942 233.971 402.935C234.929 401.927 234.714 400.812 233.57 399.716L226.918 393.416C225.783 392.34 224.658 392.164 223.689 393.181C222.721 394.199 222.956 395.324 224.09 396.4L230.742 402.7Z" fill="#263238"/>
<path d="M241.513 395.5L240.731 397.055L225.255 389.229L226.36 387.038L239.341 389.112L228.17 383.487L228.943 381.961L244.419 389.787L243.509 391.577L229.001 389.21L241.513 395.5Z" fill="#263238"/>
<path d="M186.839 297.959C186.839 297.959 170.111 286.171 162.128 285.408C154.146 284.645 153.911 310.304 154.899 315.831C156.131 322.757 166.853 322.258 174.669 315.831C178.494 312.691 187.22 304.092 187.22 304.092L186.839 297.959Z" fill="#FF4444" stroke="#263238" stroke-linecap="round" stroke-linejoin="round"/>
<path d="M184.941 297.196C184.941 297.196 164.398 298.722 161.747 294.916C159.096 291.111 159.467 286.171 163.263 286.934C167.059 287.697 184.941 297.196 184.941 297.196Z" fill="#263238" stroke="#263238" stroke-linecap="round" stroke-linejoin="round"/>
<path d="M185.958 296.814C185.958 296.814 203.195 302.556 216.979 295.67L216.509 316.213C216.509 316.213 192.307 318.649 185.988 310.607L185.958 296.814Z" fill="#FF4444" stroke="#263238" stroke-linecap="round" stroke-linejoin="round"/>
<path d="M0.491821 195.33L88.28 148.648C88.28 148.648 91.1463 148.11 93.7778 152.287C101.007 163.811 113.088 171.774 125.424 177.203C134.943 181.39 144.852 186.057 151.084 194.753C161.844 209.711 158.685 209.124 160.084 211.97C161.482 214.817 166.833 215.521 169.269 209.525C171.705 203.528 168.144 195.096 162.842 187.299C157.54 179.502 146.897 172.625 145.752 170.16C144.608 167.695 150.976 156.298 156.102 158.245C161.228 160.192 166.755 166.726 166.755 166.726L172.556 175.266C176.596 181.204 184.471 197.561 193.608 203.822C202.745 210.082 206.736 209.544 207.969 208.165C209.201 206.786 207.313 204.81 204.799 202.716C202.285 200.623 192.806 184.286 189.01 177.076C185.215 169.867 177.653 146.809 177.653 146.809C177.653 146.809 191.544 155.271 194.929 157.854C198.314 160.436 215.051 167.499 225.03 169.397C235.008 171.295 236.221 168.292 237.933 164.418C239.645 160.544 229.559 160.886 221.302 158.353C213.046 155.819 192.111 138.582 192.111 138.582C192.111 138.582 200.104 140.754 202.872 139.981C205.641 139.208 222.232 146.897 231.193 147.308C240.153 147.719 242.217 141.977 241.464 140.861C240.711 139.746 231.232 138.592 219.747 134.473C211.505 131.355 203.45 127.762 195.623 123.713C195.623 123.713 209.651 119.604 216.871 119.037C224.09 118.469 228.336 121.541 233.579 122.862C238.823 124.182 241.298 123.038 241.298 123.038L242.276 121.287C243.254 119.536 226.751 111.23 217.282 110.066C206.752 108.585 196.039 109.066 185.684 111.485C173.505 114.331 155.222 115.398 147.64 116.19C140.059 116.982 104.343 109.87 91.6256 115.789C83.6137 119.516 35.2197 133.808 0.511387 143.874" fill="white"/>
<path d="M0.491821 195.33L88.28 148.648C88.28 148.648 91.1463 148.11 93.7778 152.287C101.007 163.811 113.088 171.774 125.424 177.203C134.943 181.39 144.852 186.057 151.084 194.753C161.844 209.711 158.685 209.124 160.084 211.97C161.482 214.817 166.833 215.521 169.269 209.525C171.705 203.528 168.144 195.096 162.842 187.299C157.54 179.502 146.897 172.625 145.752 170.16C144.608 167.695 150.976 156.298 156.102 158.245C161.228 160.192 166.755 166.726 166.755 166.726L172.556 175.266C176.596 181.204 184.471 197.561 193.608 203.822C202.745 210.082 206.736 209.544 207.969 208.165C209.201 206.786 207.313 204.81 204.799 202.716C202.285 200.623 192.806 184.286 189.01 177.076C185.215 169.867 177.653 146.809 177.653 146.809C177.653 146.809 191.544 155.271 194.929 157.854C198.314 160.436 215.051 167.499 225.03 169.397C235.008 171.295 236.221 168.292 237.933 164.418C239.645 160.544 229.559 160.886 221.302 158.353C213.046 155.819 192.111 138.582 192.111 138.582C192.111 138.582 200.104 140.754 202.872 139.981C205.641 139.208 222.232 146.897 231.193 147.308C240.153 147.719 242.217 141.977 241.464 140.861C240.711 139.746 231.232 138.592 219.747 134.473C211.505 131.355 203.45 127.762 195.623 123.713C195.623 123.713 209.651 119.604 216.871 119.037C224.09 118.469 228.336 121.541 233.579 122.862C238.823 124.182 241.298 123.038 241.298 123.038L242.276 121.287C243.254 119.536 226.751 111.23 217.282 110.066C206.752 108.585 196.039 109.066 185.684 111.485C173.505 114.331 155.222 115.398 147.64 116.19C140.059 116.982 104.343 109.87 91.6256 115.789C83.6137 119.516 35.2197 133.808 0.511387 143.874" stroke="#263238" stroke-linecap="round" stroke-linejoin="round"/>
<path d="M177.653 146.838C177.653 146.838 173.3 134.063 169.162 130.365" stroke="#263238" stroke-linecap="round" stroke-linejoin="round"/>
<path d="M192.131 138.611C192.131 138.611 179.561 124.916 176.313 123.331" stroke="#263238" stroke-linecap="round" stroke-linejoin="round"/>
<path d="M195.604 123.771L186.584 116.885" stroke="#263238" stroke-linecap="round" stroke-linejoin="round"/>
<path d="M182.906 190.478C182.906 190.478 171.108 193.071 164.73 202.843L185.009 228.669C188.105 228.864 191.161 227.886 193.569 225.93C198.705 222.076 199.223 218.456 199.223 218.456C199.223 218.456 190.126 203.489 182.906 190.478Z" fill="#969696" stroke="#263238" stroke-linecap="round" stroke-linejoin="round"/>
<path d="M177.614 209.818C177.814 210.113 177.923 210.46 177.926 210.817C177.929 211.173 177.826 211.522 177.63 211.82C177.434 212.118 177.155 212.351 176.826 212.489C176.498 212.628 176.136 212.666 175.786 212.599C175.436 212.532 175.114 212.362 174.861 212.111C174.607 211.861 174.434 211.541 174.362 211.192C174.291 210.843 174.325 210.48 174.459 210.15C174.594 209.821 174.824 209.538 175.119 209.339C175.314 209.206 175.534 209.113 175.765 209.065C175.996 209.017 176.234 209.015 176.466 209.06C176.698 209.104 176.919 209.194 177.116 209.324C177.313 209.454 177.482 209.622 177.614 209.818Z" stroke="#263238" stroke-linecap="round" stroke-linejoin="round"/>
<path d="M180.382 199.576C180.516 199.746 180.613 199.942 180.668 200.151C180.723 200.36 180.734 200.579 180.7 200.792C180.667 201.006 180.59 201.211 180.474 201.393C180.358 201.576 180.206 201.733 180.027 201.854C179.848 201.975 179.646 202.058 179.433 202.098C179.22 202.137 179.002 202.133 178.791 202.084C178.58 202.036 178.382 201.944 178.208 201.816C178.034 201.687 177.888 201.524 177.78 201.337C177.581 200.992 177.52 200.584 177.609 200.196C177.699 199.808 177.932 199.468 178.262 199.245C178.591 199.022 178.994 198.932 179.387 198.993C179.78 199.055 180.136 199.263 180.382 199.576Z" stroke="#263238" stroke-linecap="round" stroke-linejoin="round"/>
<path d="M189.607 214.68C189.739 214.879 189.787 215.122 189.741 215.356C189.695 215.59 189.559 215.797 189.363 215.932C189.166 216.064 188.926 216.114 188.693 216.07C188.461 216.026 188.255 215.892 188.12 215.697C188.03 215.502 188.013 215.28 188.072 215.073C188.131 214.866 188.263 214.687 188.443 214.569C188.623 214.45 188.839 214.4 189.053 214.428C189.267 214.456 189.463 214.559 189.607 214.719V214.68Z" stroke="#263238" stroke-linecap="round" stroke-linejoin="round"/>
<path d="M185.176 206.57C185.268 206.692 185.335 206.831 185.372 206.98C185.409 207.128 185.416 207.282 185.391 207.433C185.367 207.584 185.312 207.729 185.229 207.858C185.147 207.986 185.039 208.097 184.913 208.183C184.786 208.269 184.644 208.328 184.494 208.357C184.343 208.386 184.189 208.384 184.039 208.351C183.89 208.318 183.749 208.255 183.625 208.166C183.501 208.077 183.396 207.963 183.317 207.832C183.169 207.586 183.12 207.292 183.182 207.011C183.244 206.73 183.411 206.483 183.649 206.322C183.887 206.16 184.178 206.096 184.462 206.142C184.746 206.188 185.001 206.342 185.176 206.57Z" stroke="#263238" stroke-linecap="round" stroke-linejoin="round"/>
<path d="M186.066 222.242C186.192 222.426 186.262 222.643 186.265 222.866C186.268 223.089 186.205 223.307 186.083 223.494C185.961 223.681 185.787 223.828 185.582 223.915C185.377 224.003 185.15 224.028 184.931 223.986C184.712 223.945 184.51 223.84 184.351 223.683C184.192 223.527 184.083 223.327 184.038 223.109C183.993 222.89 184.014 222.663 184.098 222.457C184.182 222.25 184.326 222.073 184.51 221.949C184.756 221.783 185.057 221.721 185.348 221.775C185.64 221.83 185.897 221.998 186.066 222.242Z" stroke="#263238" stroke-linecap="round" stroke-linejoin="round"/>
<path d="M182.652 178.055C181.578 176.191 179.886 174.762 177.869 174.014C175.851 173.267 173.637 173.249 171.608 173.963C169.579 174.678 167.863 176.079 166.759 177.925C165.655 179.771 165.231 181.945 165.562 184.071C163.881 182.746 161.791 182.047 159.651 182.095C157.511 182.143 155.454 182.934 153.834 184.333C152.214 185.732 151.131 187.652 150.772 189.762C150.413 191.872 150.8 194.042 151.866 195.898C154.801 201.034 160.925 203.215 166.491 204.105C167.606 204.291 179.962 207.343 179.874 208.595C180.549 199.067 188.247 187.729 182.652 178.055Z" fill="#FF4444" stroke="#263238" stroke-linecap="round" stroke-linejoin="round"/>
<path d="M156.542 196.817C158.385 196.817 159.878 194.579 159.878 191.818C159.878 189.058 158.385 186.82 156.542 186.82C154.7 186.82 153.206 189.058 153.206 191.818C153.206 194.579 154.7 196.817 156.542 196.817Z" fill="white"/>
<path d="M167.548 182.144C167.548 183.386 168.213 184.393 169.044 184.393C169.876 184.393 170.541 183.415 170.541 182.144C170.541 180.872 169.876 179.894 169.044 179.894C168.213 179.894 167.548 180.901 167.548 182.144Z" fill="white"/>
<path opacity="0.1" d="M295.532 107.562C281.406 92.1055 259.337 87.6153 235.986 86.2751C225.294 85.6588 214.132 83.6045 205.875 76.7861C197.619 69.9677 193.52 57.2211 199.311 48.1625C199.746 47.4095 200.344 46.7642 201.062 46.2745C203.136 45.0223 205.787 46.2255 207.822 47.5462C213.047 50.9364 217.719 55.1102 221.674 59.921C224.609 63.521 227.544 67.747 232.102 68.8231C238.588 70.3883 244.458 64.8416 248.547 59.5787C252.636 54.3157 257.478 48.2603 264.14 48.2994C271.213 48.2994 276.3 55.6657 277.16 62.6895C278.021 69.7133 275.967 76.7176 275.419 83.7708C281.455 77.285 286.806 69.8601 289.115 61.271C291.423 52.682 290.21 42.8995 284.458 36.2083C278.706 29.517 267.828 27.091 260.55 32.1387C256.001 35.2887 251.697 41.1973 246.483 39.3582C243.499 38.3017 242.012 35.0637 240.505 32.2757C229.559 11.9281 201.571 3.66189 180.46 13.0629C159.35 22.4639 146.848 47.0864 149.675 70.0264C150.653 78.1361 153.529 86.3142 159.379 92.0174C178.944 111.123 207.441 102.896 231.545 107.924C252.822 112.365 262.223 135.09 257.234 154.821C251.501 177.526 237.052 197.991 220.236 213.937C212.038 221.763 195.379 231.966 194.205 244.644C192.835 259.582 202.921 258.428 202.921 258.428C202.921 258.428 203.831 250.386 219.874 240.623C246.072 224.688 282.893 223.015 300.091 193.951C315.214 168.389 316.418 130.424 295.532 107.562Z" fill="black"/>
<g opacity="0.15">
<path d="M279.538 200.867C301.059 180.823 305.305 143.151 295.767 119.271C287.442 98.4543 257.684 88.5348 237.238 86.3533L235.986 86.2751C234.558 86.187 233.11 86.0794 231.672 85.9327C230.694 85.9327 229.823 85.874 228.962 85.874C209.397 85.874 173.133 89.6892 159.771 69.6448C155.677 63.4684 152.737 56.6009 151.093 49.3755C149.339 56.1074 148.858 63.1079 149.675 70.0166C150.653 78.1263 153.529 86.3044 159.379 92.0076C178.944 111.113 207.441 102.886 231.545 107.914C237.193 109.055 242.426 111.705 246.688 115.583C248.178 116.174 249.596 116.932 250.914 117.843C267.613 129.768 275.722 148.854 269.501 172.713C263.279 196.573 229.901 206.59 212.762 224.247C199.928 237.434 200.789 249.975 202.002 255.493C202.295 253.008 203.89 248.43 208.849 239.997C219.414 222.34 258.065 220.912 279.538 200.867Z" fill="black"/>
</g>
<path opacity="0.15" d="M208.438 78.6741C207.558 78.0871 206.697 77.4611 205.875 76.7861C197.619 69.9383 193.52 57.2211 199.311 48.1625C199.746 47.4095 200.344 46.7641 201.062 46.2744C203.136 45.0223 205.787 46.2255 207.822 47.5462C213.047 50.9364 217.719 55.1102 221.674 59.921C224.609 63.521 227.544 67.747 232.102 68.8231C238.588 70.3883 244.458 64.8416 248.547 59.5786C252.636 54.3157 257.478 48.2603 264.14 48.2994C271.213 48.2994 276.3 55.6656 277.16 62.6895C278.021 69.7133 275.967 76.7176 275.419 83.7708C281.455 77.285 286.806 69.86 289.115 61.271C291.071 54.1494 290.543 46.1473 286.992 39.7495C283.079 38.5071 278.129 38.0278 271.917 38.5658C244.242 40.9528 247.109 61.946 235.653 62.4253C224.198 62.9047 224.198 35.2202 209.407 27.5899C194.616 19.9595 161.688 25.6823 178.396 51.9287C188.355 67.6688 200.378 75.1719 208.438 78.6741Z" fill="black"/>
<path d="M258.613 208.38C258.843 207.8 258.864 207.157 258.67 206.563C258.477 205.969 258.083 205.461 257.555 205.127C257.027 204.793 256.399 204.654 255.78 204.733C255.16 204.813 254.588 205.106 254.162 205.563C254.162 204.941 253.945 204.339 253.548 203.86C253.151 203.381 252.6 203.056 251.989 202.94C251.378 202.824 250.746 202.925 250.202 203.225C249.657 203.525 249.234 204.006 249.006 204.585C248.361 206.189 248.958 207.969 249.76 209.398C249.916 209.681 251.442 213.056 251.139 213.252C253.438 211.697 257.41 211.413 258.613 208.38Z" fill="#FF4444"/>
<path d="M191.926 237.356C191.633 236.803 191.155 236.37 190.575 236.133C189.996 235.896 189.351 235.871 188.755 236.061C188.158 236.25 187.648 236.644 187.312 237.172C186.976 237.7 186.836 238.33 186.917 238.951C186.44 238.549 185.838 238.326 185.215 238.321C184.592 238.315 183.986 238.527 183.502 238.919C183.018 239.312 182.686 239.861 182.563 240.472C182.44 241.083 182.533 241.718 182.828 242.267C183.64 243.783 185.391 244.468 186.995 244.781C187.318 244.84 190.908 245.838 190.84 246.199C191.133 243.431 193.461 240.213 191.926 237.356Z" fill="#FF4444"/>
<path d="M177.897 240.349C177.605 239.973 177.19 239.712 176.725 239.61C176.26 239.508 175.773 239.573 175.351 239.793C174.928 240.013 174.596 240.374 174.413 240.814C174.229 241.253 174.206 241.743 174.346 242.198C173.938 241.962 173.461 241.874 172.996 241.951C172.531 242.028 172.106 242.263 171.796 242.618C171.485 242.972 171.307 243.424 171.292 243.895C171.278 244.367 171.427 244.828 171.715 245.202C172.158 245.662 172.697 246.02 173.294 246.25C173.89 246.48 174.53 246.576 175.168 246.532C175.413 246.532 178.21 246.816 178.23 247.09C178.083 245.006 179.414 242.286 177.897 240.349Z" fill="#FF4444"/>
<path d="M228.189 246.669C227.392 245.968 226.746 245.112 226.291 244.153C225.835 243.195 225.579 242.154 225.538 241.093C225.157 240.712 224.64 240.498 224.1 240.498C223.561 240.498 223.044 240.712 222.662 241.093C222.247 241.582 221.944 242.156 221.775 242.775C221.606 243.393 221.575 244.041 221.684 244.673C221.684 244.918 221.752 247.735 221.479 247.784C223.592 247.393 226.438 248.401 228.189 246.669Z" fill="#FF4444"/>
<path d="M287.755 129.436C287.52 128.855 287.089 128.375 286.536 128.08C285.984 127.785 285.345 127.694 284.732 127.822C284.119 127.95 283.571 128.29 283.183 128.782C282.795 129.273 282.592 129.886 282.609 130.512C282.175 130.065 281.6 129.783 280.981 129.715C280.362 129.647 279.738 129.796 279.217 130.138C278.696 130.479 278.311 130.991 278.126 131.586C277.942 132.181 277.971 132.821 278.207 133.397C278.872 134.992 280.536 135.843 282.12 136.332C282.433 136.43 285.877 137.78 285.798 138.132C286.356 135.393 288.997 132.429 287.755 129.436Z" fill="#FF4444"/>
<path d="M190.311 43.5451C190.743 43.0935 191.003 42.5047 191.046 41.8813C191.088 41.2579 190.911 40.6393 190.544 40.1332C190.178 39.627 189.645 39.2655 189.04 39.1114C188.434 38.9573 187.794 39.0204 187.23 39.2898C187.464 38.7109 187.488 38.0686 187.299 37.4737C187.109 36.8788 186.718 36.3686 186.193 36.0312C185.668 35.6938 185.041 35.5503 184.422 35.6255C183.802 35.7007 183.228 35.9898 182.798 36.4431C182.282 37.1063 181.917 37.8752 181.731 38.6953C181.545 39.5153 181.542 40.3662 181.722 41.1876C181.722 41.5202 181.938 45.2082 181.576 45.2864C184.295 44.6995 188.081 45.9027 190.311 43.5451Z" fill="#FF4444"/>
<path d="M274.842 122.92C274.09 123.301 273.267 123.522 272.426 123.571C271.584 123.62 270.742 123.495 269.951 123.204C269.754 123.286 269.574 123.405 269.423 123.556C269.272 123.707 269.152 123.886 269.071 124.083C268.989 124.28 268.947 124.491 268.947 124.705C268.947 124.918 268.989 125.13 269.07 125.327C269.313 125.775 269.651 126.165 270.06 126.469C270.468 126.773 270.939 126.984 271.438 127.088C271.624 127.146 273.707 127.968 273.668 128.183C273.991 126.53 275.595 124.74 274.842 122.92Z" fill="#FF4444"/>
<path d="M293.703 177.565C292.951 177.946 292.128 178.167 291.287 178.216C290.445 178.265 289.603 178.14 288.811 177.849C288.615 177.93 288.435 178.048 288.285 178.198C288.134 178.348 288.014 178.526 287.932 178.723C287.85 178.919 287.808 179.13 287.808 179.342C287.808 179.555 287.85 179.766 287.931 179.962C288.172 180.412 288.509 180.804 288.918 181.11C289.327 181.416 289.798 181.629 290.298 181.733C290.484 181.791 292.568 182.603 292.529 182.819C292.852 181.175 294.456 179.375 293.703 177.565Z" fill="#FF4444"/>
<path d="M172.938 90.9903C172.792 90.6426 172.529 90.3566 172.195 90.1815C171.861 90.0064 171.476 89.953 171.107 90.0305C170.738 90.1081 170.407 90.3117 170.172 90.6064C169.937 90.9011 169.811 91.2686 169.817 91.6457C169.555 91.375 169.207 91.204 168.832 91.162C168.457 91.1201 168.08 91.2097 167.764 91.4155C167.448 91.6214 167.214 91.9307 167.101 92.2904C166.989 92.6501 167.005 93.0378 167.146 93.387C167.388 93.8373 167.725 94.2292 168.134 94.5352C168.543 94.8411 169.014 95.0536 169.514 95.1576C169.7 95.2163 171.783 96.0283 171.744 96.2435C172.087 94.6294 173.691 92.8294 172.938 90.9903Z" fill="#FF4444"/>
<path d="M179.746 232.915C176.616 233.472 176.166 233.893 175.608 237.053C175.061 233.922 174.63 233.472 171.47 232.915C174.611 232.367 175.061 231.937 175.608 228.787C176.166 231.917 176.616 232.367 179.746 232.915Z" fill="#FF4444"/>
<path d="M232.797 261.695C229.666 262.252 229.216 262.673 228.669 265.833C228.111 262.702 227.69 262.252 224.531 261.695C227.661 261.147 228.111 260.717 228.669 257.567C229.216 260.697 229.666 261.147 232.797 261.695Z" fill="#FF4444"/>
<path d="M227.25 201.337C224.12 201.894 223.67 202.315 223.112 205.475C222.564 202.344 222.134 201.894 218.974 201.337C222.114 200.789 222.564 200.359 223.112 197.199C223.689 200.339 224.12 200.789 227.25 201.337Z" fill="#FF4444"/>
<path d="M324.342 144.794C321.211 145.342 320.761 145.772 320.204 148.922C319.656 145.792 319.225 145.342 316.066 144.794C319.206 144.236 319.656 143.816 320.204 140.656C320.761 143.816 321.211 144.266 324.342 144.794Z" fill="#FF4444"/>
</svg>
